<?xml version="1.0" standalone="no"?>
<!DOCTYPE svg PUBLIC "-//W3C//DTD SVG 1.1//EN" "http://www.w3.org/Graphics/SVG/1.1/DTD/svg11.dtd" >
<svg xmlns="http://www.w3.org/2000/svg" xmlns:xlink="http://www.w3.org/1999/xlink" version="1.1">
<metadata></metadata>
<defs>
<font id="evolventaregular" horiz-adv-x="554" >
<font-face units-per-em="1000" ascent="800" descent="-200" />
<missing-glyph horiz-adv-x="277" />
<glyph unicode="&#xfb01;" horiz-adv-x="490" d="M101 0v480h-85v67h85q0 192 210 192v-67q-76 0 -106 -28t-30 -97h136v-67h-136v-480h-74zM353 0v547h74v-547h-74zM353 613v126h74v-126h-74z" />
<glyph unicode="&#xfb02;" horiz-adv-x="490" d="M101 0v480h-85v67h85q0 192 210 192v-67q-76 0 -106 -28t-30 -97h136v-67h-136v-480h-74zM353 0v739h74v-739h-74z" />
<glyph unicode="&#xfb03;" horiz-adv-x="742" d="M101 0v480h-85v67h85q0 192 210 192v-67q-76 0 -106 -28t-30 -97h178q0 192 210 192v-67q-76 0 -106 -28t-30 -97h136v-67h-136v-480h-74v480h-178v-480h-74zM605 0v547h74v-547h-74zM605 613v126h74v-126h-74z" />
<glyph unicode="&#xfb04;" horiz-adv-x="742" d="M101 0v480h-85v67h85q0 192 210 192v-67q-76 0 -106 -28t-30 -97h178q0 192 210 192v-67q-76 0 -106 -28t-30 -97h136v-67h-136v-480h-74v480h-178v-480h-74zM605 0v739h74v-739h-74z" />
<glyph horiz-adv-x="0" />
<glyph horiz-adv-x="333" />
<glyph unicode=" "  horiz-adv-x="277" />
<glyph unicode="&#x09;" horiz-adv-x="277" />
<glyph unicode="&#xa0;" horiz-adv-x="277" />
<glyph unicode="!" horiz-adv-x="295" d="M111 0v126h74v-126h-74zM111 197v542h74v-542h-74z" />
<glyph unicode="&#x22;" horiz-adv-x="309" d="M237 513h-50v226h50v-226zM124 513h-50v226h50v-226z" />
<glyph unicode="#" d="M534 298v-61h-135l-43 -237h-66l43 237h-164l-45 -237h-65l45 237h-99v61h111l29 155h-124v61h135l42 225h64l-41 -225h163l40 225h67l-41 -225h99v-61h-110l-28 -155h123zM373 453h-163l-29 -155h163z" />
<glyph unicode="$" d="M245 -56v85q-171 31 -171 199h70q4 -65 39 -101.5t94 -36.5q56 0 92 37.5t36 96.5q0 61 -42 97q-28 23 -93 42q-56 17 -83.5 32.5t-47.5 40.5q-39 47 -39 116q0 68 39 115t106 61v82h66v-82q74 -11 116.5 -59t45.5 -122h-70q-3 56 -33.5 87t-82.5 31t-82.5 -32t-30.5 -87 q0 -46 25.5 -70.5t96.5 -47.5q93 -30 128 -65q55 -52 55 -137q0 -80 -47 -135t-121 -62v-85h-66z" />
<glyph unicode="%" horiz-adv-x="775" d="M514 739h74l-334 -739h-72zM579 338q70 0 121.5 -52t51.5 -123q0 -73 -51.5 -124.5t-124.5 -51.5q-72 0 -123.5 51.5t-51.5 123.5q0 74 51.5 125t126.5 51zM575 272q-44 0 -75.5 -32.5t-31.5 -76.5q0 -46 32 -78t76 -32q45 0 76.5 32t31.5 77q0 46 -31.5 78t-77.5 32z M191 749q71 0 122 -52t51 -124q0 -73 -51.5 -124.5t-124.5 -51.5q-72 0 -123.5 51.5t-51.5 124.5q0 74 51.5 125t126.5 51zM186 683q-44 0 -75.5 -32.5t-31.5 -77.5q0 -46 32 -78t77 -32q44 0 76 32t32 77q0 47 -31.5 79t-78.5 32z" />
<glyph unicode="&#x26;" horiz-adv-x="757" d="M602 481h82l-136 -261l187 -182l-51 -51l-171 166q-43 -87 -96 -126.5t-127 -39.5q-100 0 -166.5 64.5t-66.5 161.5q0 102 84 168q32 24 86 52q-46 49 -64 82.5t-18 72.5q0 69 50.5 116.5t124.5 47.5q77 0 127.5 -48t50.5 -121q0 -82 -70 -130q-14 -11 -74 -42l140 -138z M458 206l-178 174q-82 -40 -116 -79.5t-34 -95.5q0 -63 45 -107t110 -44q53 0 93 35t80 117zM300 464q128 49 128 125q0 41 -30 68.5t-76 27.5q-43 0 -73 -27.5t-30 -67.5q0 -52 81 -126z" />
<glyph unicode="'" horiz-adv-x="198" d="M124 513h-50v226h50v-226z" />
<glyph unicode="(" horiz-adv-x="369" d="M335 739v-63q-83 -51 -133 -131q-71 -115 -71 -236q0 -153 100 -280q39 -49 104 -89v-65q-58 21 -102 56.5t-85 94.5q-91 130 -91 283q0 95 38 187t106 160q54 55 134 83z" />
<glyph unicode=")" horiz-adv-x="369" d="M34 -125v64q83 49 133 131q71 115 71 236q0 72 -26.5 146t-73.5 133q-39 49 -104 89v65q59 -21 102.5 -56t84.5 -94q91 -130 91 -284q0 -94 -38 -186.5t-106 -160.5q-56 -56 -134 -83z" />
<glyph unicode="*" horiz-adv-x="425" d="M267 752l47 -28l-57 -92l103 3v-52l-102 2l55 -90l-47 -27l-53 91l-53 -91l-48 28l57 89l-105 -2v52l105 -3l-56 92l49 28l53 -90z" />
<glyph unicode="+" horiz-adv-x="606" d="M265 341v216h77v-216h213v-74h-213v-218h-77v218h-214v74h214z" />
<glyph unicode="," horiz-adv-x="277" d="M91 -67l88 193h74l-88 -193h-74z" />
<glyph unicode="-" horiz-adv-x="332" d="M31 296h271v-63h-271v63z" />
<glyph unicode="." horiz-adv-x="277" d="M101 0v126h74v-126h-74z" />
<glyph unicode="/" horiz-adv-x="437" d="M40 -128l287 867h70l-290 -867h-67z" />
<glyph unicode="0" d="M30 269v210q0 128 57 195q66 78 190 78q141 0 209 -104q39 -59 39 -169v-210q0 -131 -48 -195q-63 -87 -194 -87q-156 0 -220 116q-33 61 -33 166zM452 281v181q0 113 -37 161q-48 62 -137 62q-50 0 -90 -22t-61 -60q-24 -45 -24 -141v-181q0 -111 35 -161 q49 -66 142 -66q111 0 150 84q22 47 22 143z" />
<glyph unicode="1" d="M281 0v672h-126v67h199v-739h-73z" />
<glyph unicode="2" d="M33 0v67l259 250q66 63 88 90q52 61 52 124q0 67 -45 110.5t-115 43.5q-49 0 -86.5 -23t-56.5 -64q-17 -37 -17 -98h-73q0 65 16 108q26 68 83.5 106t134.5 38q101 0 167 -63.5t66 -161.5q0 -59 -29 -109t-107 -124l-237 -227h369v-67h-469z" />
<glyph unicode="3" d="M155 555h-73q3 91 53.5 144t133.5 53q82 0 134 -52t52 -135q0 -89 -76 -142q125 -63 125 -199q0 -100 -67 -168.5t-164 -68.5q-69 0 -125 32.5t-86 88.5q-26 49 -29 123h73q5 -72 32 -109q47 -68 132 -68q68 0 114 47.5t46 118.5q0 58 -34.5 103t-90.5 59q-24 5 -86 6v66 q29 -2 36 -2q58 0 92 31.5t34 85.5q0 51 -31.5 83.5t-80.5 32.5q-54 0 -83.5 -34t-30.5 -96z" />
<glyph unicode="4" d="M386 0v135h-374v67l360 537h87v-537h68v-67h-68v-135h-73zM386 202v435l-289 -435h289z" />
<glyph unicode="5" d="M67 375l66 364h333v-67h-274l-36 -204q63 35 127 35q104 0 174.5 -74t70.5 -183t-72 -184t-176 -75q-74 0 -135.5 39.5t-93.5 107.5q-16 36 -25 98h72q10 -80 59.5 -129t119.5 -49q75 0 126 55.5t51 136.5t-50.5 135.5t-126.5 54.5q-86 0 -153 -83z" />
<glyph unicode="6" d="M296 739h85l-174 -257q43 21 86 21q99 0 167.5 -73.5t68.5 -180.5q0 -114 -70.5 -188t-178.5 -74q-109 0 -182 73.5t-73 183.5q0 55 17.5 99t70.5 124zM276 436q-75 0 -126 -54.5t-51 -135.5q0 -82 51.5 -137t128.5 -55t126.5 54t49.5 137q0 85 -50 138t-129 53z" />
<glyph unicode="7" d="M110 0l304 672h-350v67h426v-67l-302 -672h-78z" />
<glyph unicode="8" d="M167 413q-32 19 -50 39q-36 45 -36 109q0 82 56.5 136.5t140.5 54.5q86 0 140.5 -53.5t54.5 -137.5q0 -107 -88 -148q127 -56 127 -195q0 -101 -65.5 -166t-166.5 -65q-102 0 -170 65t-68 163q0 138 125 198zM275 375q-70 0 -114.5 -45.5t-44.5 -116.5q0 -69 46 -114 t117 -45q70 0 114.5 45.5t44.5 116.5t-45 115t-118 44zM275 685q-52 0 -86 -33.5t-34 -85.5t36 -87t89 -35q51 0 85 34.5t34 86.5q0 54 -34 87t-90 33z" />
<glyph unicode="9" d="M258 0h-85l174 257q-43 -21 -86 -21q-99 0 -167.5 73.5t-68.5 180.5q0 114 70.5 188t178.5 74q109 0 182 -73.5t73 -183.5q0 -55 -17.5 -99t-70.5 -124zM272 685q-75 0 -124 -54.5t-49 -137.5t50 -136.5t127 -53.5t128 54t51 136q0 83 -52 137.5t-131 54.5z" />
<glyph unicode=":" horiz-adv-x="277" d="M101 0v126h74v-126h-74zM101 381v126h74v-126h-74z" />
<glyph unicode=";" horiz-adv-x="277" d="M41 -67l88 193h74l-88 -193h-74zM125 381v126h74v-126h-74z" />
<glyph unicode="&#x3c;" horiz-adv-x="606" d="M558 565v-78l-401 -187l401 -185v-78l-509 231v65z" />
<glyph unicode="=" horiz-adv-x="606" d="M555 436v-74h-504v74h504zM555 238v-74h-504v74h504z" />
<glyph unicode="&#x3e;" horiz-adv-x="606" d="M48 37v78l402 187l-402 185v78l509 -231v-65z" />
<glyph unicode="?" horiz-adv-x="591" d="M261 0v126h74v-126h-74zM135 508h-70q3 91 39 146q67 98 195 98q98 0 162 -61.5t64 -155.5q0 -49 -20 -87t-70 -83q-56 -49 -78.5 -87t-23.5 -85h-70q1 62 24 107t80 97q50 47 67 75t17 65q0 64 -43 106t-109 42q-47 0 -85 -21.5t-57 -59.5q-16 -30 -22 -96z" />
<glyph unicode="@" horiz-adv-x="867" d="M656 574l-93 -278q-20 -62 -20 -77q0 -13 9.5 -20.5t23.5 -7.5q44 0 90 48q81 81 81 195t-84.5 190.5t-210.5 76.5q-136 0 -232.5 -98t-96.5 -235q0 -138 96 -234.5t234 -96.5t234 101l40 -33q-47 -55 -120.5 -86.5t-155.5 -31.5q-160 0 -270 110.5t-110 269.5 q0 160 111.5 272.5t269.5 112.5q138 0 237 -85q108 -91 108 -234q0 -141 -102 -235q-63 -59 -131 -59q-35 0 -55.5 13t-32.5 44q-52 -52 -119 -52q-61 0 -99.5 41.5t-38.5 106.5q0 115 75.5 208t168.5 93q47 0 80 -22q20 -12 35 -47l17 50h61zM463 539q-64 0 -118 -77 t-54 -168q0 -41 22 -66.5t58 -25.5q35 0 63 22.5t55 72.5q22 41 36.5 88t14.5 77q0 35 -21 56t-56 21z" />
<glyph unicode="A" horiz-adv-x="740" d="M11 0l317 739h83l318 -739h-81l-107 249h-344l-108 -249h-78zM225 316h287l-142 339z" />
<glyph unicode="B" horiz-adv-x="574" d="M76 0v739h173q127 0 187 -43q66 -49 66 -149q0 -107 -82 -153q65 -27 94.5 -70.5t29.5 -111.5q0 -57 -22 -103t-61 -70q-65 -39 -202 -39h-183zM150 67h101q110 0 160 27q26 14 42 45t16 69q0 49 -22.5 84t-62.5 48q-46 14 -146 14h-88v-287zM150 421h90q88 0 130 19 q57 26 57 106q0 72 -43 100q-38 26 -145 26h-89v-251z" />
<glyph unicode="C" horiz-adv-x="813" d="M688 194h82q-112 -207 -338 -207q-166 0 -277 109t-111 271q0 166 109 275.5t274 109.5q115 0 206 -55t134 -150h-83q-38 61 -85 90q-74 47 -169 47q-133 0 -222 -90t-89 -224q0 -130 91.5 -222.5t220.5 -92.5q107 0 187 64q35 29 70 75z" />
<glyph unicode="D" horiz-adv-x="744" d="M76 0v739h174q104 0 170 -14.5t120 -48.5q160 -101 160 -309q0 -106 -45.5 -187t-132.5 -129q-93 -51 -247 -51h-199zM150 67h103q101 0 164 16.5t108 54.5q100 86 100 232q0 85 -37 152.5t-104 105.5q-77 44 -231 44h-103v-605z" />
<glyph unicode="E" horiz-adv-x="536" d="M76 0v739h404v-67h-330v-265h319v-67h-319v-273h330v-67h-404z" />
<glyph unicode="F" horiz-adv-x="485" d="M76 0v739h375v-67h-301v-267h290v-67h-290v-338h-74z" />
<glyph unicode="G" horiz-adv-x="872" d="M329 341h502q-8 -132 -103 -235q-108 -119 -282 -119q-170 0 -286 110.5t-116 273.5q0 160 113.5 270.5t278.5 110.5q121 0 217 -58t133 -152h-83q-38 67 -106.5 104.5t-154.5 37.5q-137 0 -230 -90.5t-93 -224.5q0 -132 94 -223t230 -91t225 92q58 61 74 127h-413v67z " />
<glyph unicode="H" horiz-adv-x="683" d="M76 0v739h74v-325h383v325h74v-739h-74v347h-383v-347h-74z" />
<glyph unicode="I" horiz-adv-x="226" d="M76 0v739h74v-739h-74z" />
<glyph unicode="J" horiz-adv-x="482" d="M406 739v-508q0 -119 -50.5 -182t-146.5 -63q-88 0 -140.5 50t-57.5 139h73q4 -56 37.5 -88.5t88.5 -32.5q122 0 122 177v508h74z" />
<glyph unicode="K" horiz-adv-x="591" d="M76 0v739h74v-425l342 425h93l-292 -360l292 -379h-93l-246 320l-96 -118v-202h-74z" />
<glyph unicode="L" horiz-adv-x="462" d="M76 0v739h74v-672h306v-67h-380z" />
<glyph unicode="M" horiz-adv-x="919" d="M76 0v739h115l269 -629l268 629h115v-739h-74v658l-278 -658h-64l-277 658v-658h-74z" />
<glyph unicode="N" horiz-adv-x="740" d="M76 0v739h100l414 -613v613h74v-739h-74l-440 650v-650h-74z" />
<glyph unicode="O" horiz-adv-x="869" d="M440 752q157 0 271 -113t114 -270t-114.5 -269.5t-275.5 -112.5q-160 0 -275.5 112.5t-115.5 269.5q0 160 115.5 271.5t280.5 111.5zM431 684q-127 0 -219.5 -93.5t-92.5 -221.5q0 -129 93 -221.5t223 -92.5q129 0 222 92.5t93 220.5q0 131 -93 223.5t-226 92.5z" />
<glyph unicode="P" horiz-adv-x="592" d="M76 0v739h204q133 0 197 -39q88 -52 88 -185q0 -116 -74 -170q-63 -46 -199 -46h-142v-299h-74zM150 366h137q99 0 142 25q61 33 61 125q0 113 -83 140q-48 16 -152 16h-105v-306z" />
<glyph unicode="Q" horiz-adv-x="871" d="M827 56v-69q-52 1 -88 15t-74 49q-96 -64 -222 -64q-167 0 -283 111t-116 271q0 164 114 273.5t286 109.5q170 0 282.5 -108.5t112.5 -272.5q0 -173 -123 -278q52 -38 96 -38q8 0 15 1zM161 216q39 -73 116.5 -117t165.5 -44q91 0 162 45q-80 73 -156.5 105t-171.5 32 q-63 0 -116 -21zM130 279q78 26 158 26q159 0 284 -90q49 -37 91 -73q101 98 101 229q0 133 -92.5 223t-229.5 90t-230 -92.5t-93 -228.5q0 -33 11 -84z" />
<glyph unicode="R" horiz-adv-x="607" d="M359 276l207 -276h-92l-249 335q121 0 170 14q107 32 107 154q0 105 -78 142q-57 27 -170 27h-104v-672h-74v739h183q143 0 212 -38q106 -61 106 -199q0 -99 -56 -157t-162 -69z" />
<glyph unicode="S" horiz-adv-x="498" d="M22 207h79q7 -64 37 -100q43 -52 117 -52q64 0 105 41.5t41 105.5q0 70 -50 106q-37 25 -115 48q-65 20 -90.5 32.5t-47.5 33.5q-52 49 -52 131q0 87 58 143t147 56q91 0 148 -55t59 -145h-77q-4 60 -40 96t-92 36t-92 -36.5t-36 -92.5q0 -54 35 -86q24 -21 109 -46 q96 -29 138 -59q73 -56 73 -158q0 -94 -63.5 -156.5t-159.5 -62.5q-100 0 -163 60t-68 160z" />
<glyph unicode="T" horiz-adv-x="426" d="M176 0v672h-169v67h412v-67h-169v-672h-74z" />
<glyph unicode="U" horiz-adv-x="655" d="M76 739h74v-461q0 -101 34 -153q21 -32 59.5 -51t83.5 -19q46 0 84.5 19t59.5 51q34 52 34 153v461h74v-461q0 -131 -52 -200q-69 -91 -200 -91q-130 0 -199 91q-52 69 -52 200v461z" />
<glyph unicode="V" horiz-adv-x="702" d="M314 0l-304 739h81l260 -647l261 647h80l-306 -739h-72z" />
<glyph unicode="W" horiz-adv-x="960" d="M221 0l-211 739h76l182 -643l177 643h70l177 -643l182 643h76l-212 -739h-95l-164 606l-162 -606h-96z" />
<glyph unicode="X" horiz-adv-x="609" d="M8 0l251 378l-237 361h87l196 -296l195 296h86l-237 -361l252 -378h-87l-209 316l-210 -316h-87z" />
<glyph unicode="Y" horiz-adv-x="592" d="M258 0v247l-256 492h82l210 -414l215 414h81l-258 -492v-247h-74z" />
<glyph unicode="Z" horiz-adv-x="480" d="M17 0v67l363 605h-352v67h435v-67l-362 -605h373v-67h-457z" />
<glyph unicode="[" horiz-adv-x="351" d="M313 -50v-75q-83 23 -138 87q-63 71 -63 202v298q0 131 78 206q53 53 123 71v-75q-73 -32 -102 -79.5t-29 -136.5v-271q0 -96 28.5 -145t102.5 -82z" />
<glyph unicode="\" horiz-adv-x="605" d="M464 0h-70l-310 739h70z" />
<glyph unicode="]" horiz-adv-x="351" d="M38 664v75q83 -23 138 -86q63 -71 63 -203v-297q0 -130 -78 -207q-51 -51 -123 -71v75q74 33 102.5 80.5t28.5 135.5v272q0 95 -28.5 144t-102.5 82z" />
<glyph unicode="^" horiz-adv-x="606" d="M588 180h-81l-203 480l-205 -480h-81l243 559h85z" />
<glyph unicode="_" horiz-adv-x="500" d="M0 -67h500v-58h-500v58z" />
<glyph unicode="`" horiz-adv-x="378" d="M106 776l198 -110l-33 -56l-197 108z" />
<glyph unicode="a" horiz-adv-x="683" d="M620 547v-547h-74v96q-44 -59 -92 -84t-118 -25q-127 0 -210.5 81t-83.5 204t82.5 205.5t205.5 82.5q71 0 123 -26t93 -84v97h74zM329 492q-88 0 -150 -63.5t-62 -153.5q0 -92 63.5 -156t154.5 -64q89 0 150 63.5t61 156.5t-62 155t-155 62z" />
<glyph unicode="b" horiz-adv-x="682" d="M63 0v739h74v-286q73 107 215 107q122 0 205 -82.5t83 -203.5q0 -123 -82.5 -205t-206.5 -82q-67 0 -123 28t-91 79v-94h-74zM347 492q-91 0 -153 -63.5t-62 -155.5q0 -91 63 -154.5t154 -63.5q92 0 154 63t62 157t-61.5 155.5t-156.5 61.5z" />
<glyph unicode="c" horiz-adv-x="647" d="M524 161h84q-42 -79 -90 -115q-76 -59 -178 -59q-126 0 -212 83t-86 205q0 119 85 202t208 83q93 0 166 -48t106 -131h-83q-65 111 -190 111q-91 0 -154 -63.5t-63 -155.5q0 -91 64 -154.5t156 -63.5q58 0 101 24.5t86 81.5z" />
<glyph unicode="d" horiz-adv-x="685" d="M622 739v-739h-74v99q-42 -59 -90.5 -85.5t-117.5 -26.5q-127 0 -212.5 82t-85.5 203q0 123 83.5 205.5t207.5 82.5q132 0 215 -100v279h74zM328 492q-88 0 -149.5 -63.5t-61.5 -154.5q0 -92 64 -155.5t157 -63.5q88 0 150.5 64.5t62.5 155.5t-64.5 154t-158.5 63z" />
<glyph unicode="e" horiz-adv-x="650" d="M611 249h-495q5 -81 66.5 -137.5t146.5 -56.5q62 0 115 34.5t76 90.5h77q-30 -86 -103.5 -139.5t-162.5 -53.5q-121 0 -205 83.5t-84 205.5q0 119 82 201.5t201 82.5q81 0 149 -40t104 -109q33 -63 33 -162zM118 316h419q-19 82 -75.5 129t-136.5 47q-78 0 -135 -48.5 t-72 -127.5z" />
<glyph unicode="f" horiz-adv-x="314" d="M101 0v480h-85v67h85q0 192 210 192v-67q-76 0 -106 -28t-30 -97h136v-67h-136v-480h-74z" />
<glyph unicode="g" horiz-adv-x="673" d="M610 547v-449q0 -80 -11.5 -128.5t-39.5 -86.5q-73 -98 -222 -98q-103 0 -174 51t-101 147h72q31 -55 56 -78q58 -52 145 -52q64 0 110.5 26t68.5 73t22 122v37q-63 -124 -209 -124q-121 0 -203 82t-82 202q0 124 79.5 206.5t199.5 82.5q135 0 215 -110v97h74zM320 492 q-86 0 -144.5 -62t-58.5 -153q0 -95 60 -158.5t150 -63.5q89 0 149 64.5t60 159.5q0 92 -61.5 152.5t-154.5 60.5z" />
<glyph unicode="h" horiz-adv-x="610" d="M63 0v739h74v-263q58 84 173 84q125 0 190 -84q47 -65 47 -182v-294h-74v294q0 95 -40 142q-46 56 -129 56q-43 0 -80 -19t-59 -52q-28 -42 -28 -121v-300h-74z" />
<glyph unicode="i" horiz-adv-x="200" d="M63 0v547h74v-547h-74zM63 613v126h74v-126h-74z" />
<glyph unicode="j" horiz-adv-x="203" d="M140 547v-509q0 -82 -16 -124t-59 -72q-45 -31 -110 -34v71q62 4 86.5 39t24.5 120v509h74zM66 613v126h74v-126h-74z" />
<glyph unicode="k" horiz-adv-x="502" d="M63 0v739h74v-524l255 332h91l-213 -275l227 -272h-92l-182 219l-86 -106v-113h-74z" />
<glyph unicode="l" horiz-adv-x="200" d="M63 0v739h74v-739h-74z" />
<glyph unicode="m" horiz-adv-x="938" d="M63 0v547h74v-63q32 41 67 58.5t87 17.5q62 0 104.5 -25t74.5 -80q66 105 189 105q116 0 175 -81q41 -55 41 -154v-325h-74v317q0 84 -33 126q-38 49 -112 49q-85 0 -127 -66q-23 -37 -23 -109v-317h-74v319q0 85 -37 126q-42 47 -111 47t-108 -45.5t-39 -127.5v-319h-74 z" />
<glyph unicode="n" horiz-adv-x="610" d="M63 0v547h74v-71q68 84 176 84q120 0 186 -85q26 -35 37 -77t11 -111v-287h-74v287q0 102 -39 149q-47 56 -130 56q-95 0 -141 -70q-26 -41 -26 -121v-301h-74z" />
<glyph unicode="o" horiz-adv-x="655" d="M332 560q121 0 201 -82t80 -206q0 -123 -79 -204t-200 -81q-125 0 -208.5 81.5t-83.5 204.5q0 125 82 206t208 81zM326 492q-90 0 -149.5 -62.5t-59.5 -157.5q0 -94 61 -155.5t154 -61.5q90 0 148 61t58 155q0 97 -59.5 159t-152.5 62z" />
<glyph unicode="p" horiz-adv-x="682" d="M63 547h74v-94q70 107 215 107q122 0 205 -82.5t83 -204.5q0 -121 -83.5 -203.5t-206.5 -82.5q-140 0 -213 107v-286h-74v739zM346 492q-90 0 -152 -63.5t-62 -155.5t62.5 -155t154.5 -63t154 62t62 154q0 97 -62 159t-157 62z" />
<glyph unicode="q" horiz-adv-x="682" d="M619 547v-739h-74v286q-73 -107 -213 -107q-123 0 -206.5 82.5t-83.5 203.5q0 122 83 204.5t205 82.5q145 0 215 -107v94h74zM331 492q-91 0 -152.5 -63t-61.5 -157q0 -93 62 -155t154 -62t154.5 63t62.5 155q0 94 -62.5 156.5t-156.5 62.5z" />
<glyph unicode="r" horiz-adv-x="301" d="M63 0v547h74v-78q22 45 59 66.5t96 24.5v-73q-155 -15 -155 -168v-319h-74z" />
<glyph unicode="s" horiz-adv-x="388" d="M18 161h73q3 -51 29.5 -78.5t73.5 -27.5q40 0 66 27t26 68q0 38 -21 58.5t-85 46.5q-59 25 -71.5 31.5t-29.5 21.5q-41 38 -41 98q0 67 44 110.5t111 43.5q66 0 109 -41t45 -107h-75q-6 80 -80 80q-33 0 -56 -23t-23 -56q0 -47 51 -73q31 -14 102 -43q95 -40 95 -140 q0 -75 -46.5 -122.5t-120.5 -47.5q-80 0 -127.5 47.5t-48.5 126.5z" />
<glyph unicode="t" horiz-adv-x="339" d="M130 0v480h-118v67h118v192h74v-192h123v-67h-123v-480h-74z" />
<glyph unicode="u" horiz-adv-x="608" d="M545 547v-547h-74v85q-53 -98 -176 -98q-131 0 -192 92q-40 57 -40 173v295h74v-295q0 -89 28 -132q41 -65 135 -65q90 0 138 68q33 49 33 143v281h74z" />
<glyph unicode="v" d="M238 0l-230 547h75l192 -460l196 460h75l-230 -547h-78z" />
<glyph unicode="w" horiz-adv-x="831" d="M216 0l-209 547h74l174 -458l129 391h61l129 -391l178 458h72l-212 -547h-79l-119 363l-118 -363h-80z" />
<glyph unicode="x" horiz-adv-x="480" d="M8 0l190 279l-190 268h84l148 -211l147 211h85l-191 -268l191 -279h-85l-147 219l-148 -219h-84z" />
<glyph unicode="y" horiz-adv-x="536" d="M132 -192l89 210l-212 529h81l173 -436l185 436h79l-316 -739h-79z" />
<glyph unicode="z" horiz-adv-x="425" d="M10 0v67l302 413h-292v67h376v-63l-299 -417h318v-67h-405z" />
<glyph unicode="{" horiz-adv-x="351" d="M125 306l18 -6q41 -16 56 -41t15 -77v-170q0 -38 13.5 -52t53.5 -18l11 -1v-67q-50 1 -70.5 5t-38.5 16q-46 30 -46 118v170q0 46 -15 63t-64 26v69q49 8 64 25t15 64v170q0 88 46 118q18 12 38 15.5t71 5.5v-67q-45 -5 -55 -10q-23 -12 -23 -61v-170q0 -52 -15.5 -77.5 t-55.5 -40.5q-12 -4 -18 -7z" />
<glyph unicode="|" horiz-adv-x="672" d="M368 739v-739h-64v739h64z" />
<glyph unicode="}" horiz-adv-x="348" d="M226 306l-18 7q-41 16 -56 41t-15 77v170q0 37 -15 55q-10 11 -52 15l-11 1v67q59 -2 84 -9t44 -28q27 -30 27 -102v-170q0 -47 14.5 -64t61.5 -25v-69q-47 -8 -61.5 -25t-14.5 -64v-170q0 -81 -36 -111q-19 -16 -42.5 -21.5t-76.5 -6.5v67l11 1q46 4 56 20q11 17 11 50 v170q0 52 15 77t56 41z" />
<glyph unicode="~" horiz-adv-x="606" d="M511 390l44 -47q-25 -51 -63.5 -81.5t-76.5 -30.5q-33 0 -93 26l-55 22q-50 21 -73 21q-39 0 -66 -35q-12 -17 -35 -55l-42 47q36 65 68.5 92.5t74.5 27.5q33 0 77 -19l65 -27q56 -23 80 -23q47 0 95 82z" />
<glyph unicode="&#xa1;" horiz-adv-x="295" d="M111 -192v544h74v-544h-74zM111 421v126h74v-126h-74z" />
<glyph unicode="&#xa2;" d="M259 62v89q-92 8 -153 73.5t-61 157.5q0 94 59.5 158t154.5 74v93h66v-93q64 -9 113 -49t71 -102h-83q-47 84 -143 84q-71 0 -117.5 -46.5t-46.5 -117.5q0 -70 47.5 -118t115.5 -48q77 0 140 73h81q-20 -55 -69 -93t-109 -46v-89h-66z" />
<glyph unicode="&#xa3;" d="M59 0v67h139q42 46 42 116q0 47 -19 80t-77 84h-126v67h75q-22 53 -22 98q0 105 66 172.5t169 67.5q101 0 169.5 -58.5t78.5 -152.5h-69q-15 68 -62 106t-116 38q-72 0 -117 -48t-45 -124q0 -48 28 -99h284v-67h-215q72 -78 72 -163q0 -52 -29 -117h57q90 0 131 39 q45 45 45 113q0 20 -6 49h72q8 -31 8 -55q0 -52 -21.5 -97t-59.5 -73q-59 -43 -167 -43h-285z" />
<glyph unicode="&#xa4;" d="M29 494l55 54l43 -42q73 47 149 47q85 0 150 -46l43 42l54 -55l-41 -42q46 -69 46 -152q0 -91 -47 -147l42 -42l-54 -53l-41 42q-43 -28 -76 -39t-76 -11q-77 0 -150 50l-42 -42l-53 54l41 41q-46 65 -46 150q0 83 47 149zM275 483q-76 0 -127 -52t-51 -129t52 -128.5 t130 -51.5q76 0 127 51.5t51 128.5q0 80 -51 130.5t-131 50.5z" />
<glyph unicode="&#xa5;" d="M260 0v237h-210v67h183l-49 92h-141v67h105l-148 276h76l221 -412l216 412h76l-146 -276h103v-67h-139l-48 -92h180v-67h-206v-237h-73z" />
<glyph unicode="&#xa6;" horiz-adv-x="672" d="M368 739v-295h-64v295h64zM368 295v-295h-64v295h64z" />
<glyph unicode="&#xa7;" horiz-adv-x="615" d="M483 606h-71q-16 79 -105 79q-46 0 -75 -26.5t-29 -67.5q0 -57 59 -86l158 -74q109 -52 109 -142q0 -86 -76 -143q48 -49 48 -109q0 -77 -53.5 -127.5t-134.5 -50.5q-88 0 -146 57.5t-61 147.5h68q5 -62 43 -100t96 -38q51 0 85.5 31.5t34.5 77.5q0 30 -22 53.5t-72 48.5 l-143 70q-62 31 -85.5 59.5t-23.5 72.5q0 91 86 152q-38 42 -38 98q0 70 49 116.5t123 46.5q73 0 122 -40.5t54 -105.5zM400 365l-188 89q-57 -39 -57 -104q0 -46 54 -72l198 -96q54 39 54 98q0 57 -61 85z" />
<glyph unicode="&#xa8;" horiz-adv-x="369" d="M74 749h74v-126h-74v126zM221 749h74v-126h-74v126z" />
<glyph unicode="&#xa9;" horiz-adv-x="747" d="M501 261h75q-30 -53 -81.5 -83t-112.5 -30q-90 0 -154.5 66t-64.5 158q0 93 64 157.5t156 64.5q130 0 196 -117h-74q-51 61 -121 61q-66 0 -113 -48.5t-47 -117.5q0 -68 47 -118t112 -50q70 0 118 57zM378 752q155 0 266 -113t111 -270q0 -158 -112 -270t-270 -112 t-270 112t-112 270q0 161 112 272t275 111zM369 700q-132 0 -227 -97.5t-95 -233.5q0 -137 95.5 -233.5t230.5 -96.5t230.5 96.5t95.5 233.5q0 139 -95.5 235t-234.5 96z" />
<glyph unicode="&#xaa;" horiz-adv-x="369" d="M333 739v-291h-48v45q-42 -52 -103 -52t-106 45.5t-45 107.5t44.5 106.5t107.5 44.5q31 0 59.5 -14.5t42.5 -36.5v45h48zM183 696q-39 0 -69 -31t-30 -71q0 -41 30 -72.5t70 -31.5q39 0 68.5 30.5t29.5 71.5q0 43 -29 73.5t-70 30.5zM31 370h308v-51h-308v51z" />
<glyph unicode="&#xab;" horiz-adv-x="425" d="M153 99l-113 201l113 199l59 -32l-94 -167l94 -168zM326 99l-115 201l115 199l59 -32l-94 -167l94 -168z" />
<glyph unicode="&#xac;" horiz-adv-x="606" d="M51 436h504v-288h-72v215h-432v73z" />
<glyph unicode="&#xad;" horiz-adv-x="332" d="M31 296h271v-63h-271v63z" />
<glyph unicode="&#xae;" horiz-adv-x="747" d="M530 157h-76l-145 202v-202h-61v428h132q78 0 115 -36q39 -39 39 -101q0 -114 -125 -131zM309 365h44q118 0 118 83q0 36 -26 57.5t-69 21.5h-67v-162zM378 752q155 0 266 -113t111 -270q0 -158 -112 -270t-270 -112t-270 112t-112 270q0 161 112 272t275 111zM369 700 q-132 0 -227 -97.5t-95 -233.5q0 -137 95.5 -233.5t230.5 -96.5t230.5 96.5t95.5 233.5q0 139 -95.5 235t-234.5 96z" />
<glyph unicode="&#xaf;" horiz-adv-x="485" d="M74 707h337v-64h-337v64z" />
<glyph unicode="&#xb0;" horiz-adv-x="400" d="M204 686q62 0 104 -44.5t42 -108.5t-43.5 -108.5t-106.5 -44.5t-106.5 44.5t-43.5 109.5q0 64 44.5 108t109.5 44zM200 629q-39 0 -66.5 -28.5t-27.5 -67.5q0 -40 27.5 -68t66.5 -28t66 28t27 68t-27 68t-66 28z" />
<glyph unicode="&#xb1;" horiz-adv-x="606" d="M265 369v216h77v-216h213v-74h-213v-171h-77v171h-214v74h214zM555 74v-74h-504v74h504z" />
<glyph unicode="&#xb2;" horiz-adv-x="332" d="M12 288v51l163 150q42 38 54 52q30 35 30 67q0 35 -27 59.5t-64 24.5q-29 0 -53 -16t-33 -42q-6 -17 -6 -51h-60v12q1 68 43.5 110t111.5 42q62 0 105.5 -41t43.5 -100q0 -36 -19 -68t-67 -74l-133 -121h217v-55h-306z" />
<glyph unicode="&#xb3;" horiz-adv-x="332" d="M104 615h-61q1 60 34.5 96t89.5 36q52 0 87.5 -34.5t35.5 -84.5q0 -26 -9 -43.5t-32 -38.5q70 -43 70 -119q0 -60 -45.5 -103.5t-107.5 -43.5q-41 0 -77.5 20.5t-55.5 54.5q-17 29 -20 84h61q2 -44 19 -66q29 -38 72 -38q37 0 65 27t28 63q0 31 -20 56t-51 32 q-16 4 -59 4v54q10 -1 20 -1q38 0 59.5 16t21.5 45q0 26 -18 43.5t-45 17.5q-28 0 -44.5 -18.5t-17.5 -49.5v-9z" />
<glyph unicode="&#xb4;" horiz-adv-x="375" d="M74 666l193 116l34 -58l-193 -114z" />
<glyph unicode="&#xb5;" horiz-adv-x="608" d="M545 547v-547h-74v85q-50 -98 -164 -98q-111 0 -170 98v-277h-74v739h74v-281q0 -69 10.5 -102.5t42.5 -62.5q50 -47 116 -47q87 0 134 69q31 48 31 143v281h74z" />
<glyph unicode="&#xb6;" horiz-adv-x="564" d="M227 -133v488q-88 9 -139 61t-51 133q0 107 86 159q48 31 137 31h231v-872h-75v805h-114v-805h-75z" />
<glyph unicode="&#xb7;" horiz-adv-x="277" d="M101 229v126h74v-126h-74z" />
<glyph unicode="&#xb8;" horiz-adv-x="324" d="M124 0h36l-19 -47q20 8 33 8q34 0 55 -22.5t21 -57.5q0 -41 -24.5 -67.5t-63.5 -26.5q-71 0 -88 73l44 5q10 -35 45 -35q19 0 31.5 13t12.5 33q0 23 -13 37.5t-33 14.5q-23 0 -43 -24l-29 17z" />
<glyph unicode="&#xb9;" horiz-adv-x="332" d="M173 288v396h-75v55h135v-451h-60z" />
<glyph unicode="&#xba;" horiz-adv-x="369" d="M186 745q61 0 106 -45t45 -106q0 -62 -45 -107t-108 -45q-62 0 -107 44.5t-45 106.5q0 63 45 107.5t109 44.5zM183 696q-40 0 -69 -30t-29 -72q0 -43 29 -73t71 -30q41 0 70 29.5t29 72.5q0 44 -29 73.5t-72 29.5zM32 370h305v-51h-305v51z" />
<glyph unicode="&#xbb;" horiz-adv-x="425" d="M272 99l-59 33l94 168l-94 167l59 32l113 -199zM99 99l-59 33l94 168l-94 167l59 32l115 -199z" />
<glyph unicode="&#xbc;" horiz-adv-x="831" d="M701 0v79h-231v50l226 322h65v-317h42v-55h-42v-79h-60zM701 134v225l-156 -225h156zM211 0l341 739h55l-342 -739h-54zM176 288v396h-75v55h135v-451h-60z" />
<glyph unicode="&#xbd;" horiz-adv-x="831" d="M206 0l341 739h55l-342 -739h-54zM171 288v396h-75v55h135v-451h-60zM506 0v51l163 150q42 38 54 52q30 35 30 67q0 35 -27 59.5t-64 24.5q-29 0 -53 -16t-33 -42q-6 -17 -6 -51h-60v12q1 68 43.5 110t111.5 42q62 0 105.5 -41t43.5 -100q0 -36 -19 -68t-67 -74 l-133 -121h217v-55h-306z" />
<glyph unicode="&#xbe;" horiz-adv-x="831" d="M701 0v79h-231v50l226 322h65v-317h42v-55h-42v-79h-60zM701 134v225l-156 -225h156zM239 0l341 739h55l-342 -739h-54zM104 615h-61q1 60 34.5 96t89.5 36q52 0 87.5 -34.5t35.5 -84.5q0 -26 -9 -43.5t-32 -38.5q70 -43 70 -119q0 -60 -45.5 -103.5t-107.5 -43.5 q-41 0 -77.5 20.5t-55.5 54.5q-19 32 -20 84h61q2 -44 19 -66q29 -38 72 -38q37 0 65 27t28 63q0 31 -20 56t-51 32q-16 4 -59 4v54q10 -1 20 -1q38 0 59.5 16t21.5 45q0 26 -18 43.5t-45 17.5q-28 0 -44.5 -18.5t-17.5 -49.5v-9z" />
<glyph unicode="&#xbf;" horiz-adv-x="591" d="M330 547v-126h-74v126h74zM456 39h70q-1 -89 -39 -146q-67 -98 -195 -98q-98 0 -162 61.5t-64 155.5q0 49 20 87t70 83q56 49 79 87.5t24 84.5h70v-15q0 -52 -33 -107q-18 -31 -72 -82q-51 -48 -67.5 -75.5t-16.5 -64.5q0 -65 43 -106.5t110 -41.5q46 0 84 21.5t57 59.5 q18 35 22 96z" />
<glyph unicode="&#xc0;" horiz-adv-x="740" d="M11 0l317 739h83l318 -739h-81l-107 249h-344l-108 -249h-78zM225 316h287l-142 339zM254 958l198 -110l-33 -56l-197 108z" />
<glyph unicode="&#xc1;" horiz-adv-x="740" d="M11 0l317 739h83l318 -739h-81l-107 249h-344l-108 -249h-78zM225 316h287l-142 339zM290 848l193 116l34 -58l-193 -114z" />
<glyph unicode="&#xc2;" horiz-adv-x="740" d="M11 0l317 739h83l318 -739h-81l-107 249h-344l-108 -249h-78zM225 316h287l-142 339zM193 805l145 126h66l143 -126h-89l-86 74l-88 -74h-91z" />
<glyph unicode="&#xc3;" horiz-adv-x="740" d="M11 0l317 739h83l318 -739h-81l-107 249h-344l-108 -249h-78zM225 316h287l-142 339zM485 910l33 -46q-12 -20 -39 -34.5t-52 -14.5q-19 0 -66 22q-25 10 -40 10q-14 0 -23.5 -4.5t-29.5 -21.5l-7 -6l-33 46q36 49 93 49q21 0 59 -17q34 -14 48 -14q27 0 57 31z" />
<glyph unicode="&#xc4;" horiz-adv-x="740" d="M11 0l317 739h83l318 -739h-81l-107 249h-344l-108 -249h-78zM225 316h287l-142 339zM260 931h74v-126h-74v126zM407 931h74v-126h-74v126z" />
<glyph unicode="&#xc5;" horiz-adv-x="740" d="M11 0l317 739h83l318 -739h-81l-107 249h-344l-108 -249h-78zM225 316h287l-142 339zM371 976q37 0 64 -27t27 -65t-27 -65t-65 -27t-65 26.5t-27 64.5q0 39 27 66t66 27zM369 935q-20 0 -35 -15t-15 -37q0 -21 15 -35.5t36 -14.5t36 15t15 35q0 22 -15 37t-37 15z" />
<glyph unicode="&#xc6;" horiz-adv-x="992" d="M11 0l511 739h414v-67h-319v-265h308v-67h-308v-273h319v-67h-393v250h-271l-173 -250h-88zM319 317h224v327z" />
<glyph unicode="&#xc7;" horiz-adv-x="813" d="M429 -13l-24 -55q20 7 34 7q34 0 55.5 -23t21.5 -61q0 -42 -25.5 -68.5t-66.5 -26.5q-71 0 -93 74l47 7q11 -34 45 -34q21 0 33 12.5t12 33.5t-13 34.5t-33 13.5q-23 0 -44 -22l-30 18l42 91q-64 10 -105 25t-82 44q-159 113 -159 310q0 166 109 275.5t274 109.5 q115 0 206 -55t134 -150h-83q-38 61 -85 90q-74 47 -169 47q-133 0 -222 -90t-89 -224q0 -130 91.5 -222.5t220.5 -92.5q107 0 187 64q35 29 70 75h82q-108 -207 -341 -207z" />
<glyph unicode="&#xc8;" horiz-adv-x="536" d="M76 0v739h404v-67h-330v-265h319v-67h-319v-273h330v-67h-404zM162 958l198 -110l-33 -56l-197 108z" />
<glyph unicode="&#xc9;" horiz-adv-x="536" d="M76 0v739h404v-67h-330v-265h319v-67h-319v-273h330v-67h-404zM198 848l193 116l34 -58l-193 -114z" />
<glyph unicode="&#xca;" horiz-adv-x="536" d="M76 0v739h404v-67h-330v-265h319v-67h-319v-273h330v-67h-404zM101 805l145 126h66l143 -126h-89l-86 74l-88 -74h-91z" />
<glyph unicode="&#xcb;" horiz-adv-x="536" d="M76 0v739h404v-67h-330v-265h319v-67h-319v-273h330v-67h-404zM168 931h74v-126h-74v126zM315 931h74v-126h-74v126z" />
<glyph unicode="&#xcc;" horiz-adv-x="226" d="M76 0v739h74v-739h-74zM30 958l198 -110l-33 -56l-197 108z" />
<glyph unicode="&#xcd;" horiz-adv-x="226" d="M76 0v739h74v-739h-74zM-1 848l193 116l34 -58l-193 -114z" />
<glyph unicode="&#xce;" horiz-adv-x="226" d="M76 0v739h74v-739h-74zM-64 805l145 126h66l143 -126h-89l-86 74l-88 -74h-91z" />
<glyph unicode="&#xcf;" horiz-adv-x="226" d="M77 0v739h74v-739h-74zM3 931h74v-126h-74v126zM150 931h74v-126h-74v126z" />
<glyph unicode="&#xd0;" horiz-adv-x="790" d="M122 347h-96v67h96v325h174q104 0 170 -14.5t120 -48.5q160 -101 160 -309q0 -106 -45.5 -187t-132.5 -129q-93 -51 -247 -51h-199v347zM196 347v-280h103q101 0 164 16.5t108 54.5q100 86 100 232q0 85 -37 152.5t-104 105.5q-77 44 -231 44h-103v-258h205v-67h-205z " />
<glyph unicode="&#xd1;" horiz-adv-x="740" d="M76 0v739h100l414 -613v613h74v-739h-74l-440 650v-650h-74zM489 910l33 -46q-12 -20 -39 -34.5t-52 -14.5q-19 0 -66 22q-25 10 -40 10q-14 0 -23.5 -4.5t-29.5 -21.5l-7 -6l-33 46q36 49 93 49q21 0 59 -17q34 -14 48 -14q27 0 57 31z" />
<glyph unicode="&#xd2;" horiz-adv-x="869" d="M440 752q157 0 271 -113t114 -270t-114.5 -269.5t-275.5 -112.5q-160 0 -275.5 112.5t-115.5 269.5q0 160 115.5 271.5t280.5 111.5zM431 684q-127 0 -219.5 -93.5t-92.5 -221.5q0 -129 93 -221.5t223 -92.5q129 0 222 92.5t93 220.5q0 131 -93 223.5t-226 92.5zM318 958 l198 -110l-33 -56l-197 108z" />
<glyph unicode="&#xd3;" horiz-adv-x="869" d="M440 752q157 0 271 -113t114 -270t-114.5 -269.5t-275.5 -112.5q-160 0 -275.5 112.5t-115.5 269.5q0 160 115.5 271.5t280.5 111.5zM431 684q-127 0 -219.5 -93.5t-92.5 -221.5q0 -129 93 -221.5t223 -92.5q129 0 222 92.5t93 220.5q0 131 -93 223.5t-226 92.5zM354 848 l193 116l34 -58l-193 -114z" />
<glyph unicode="&#xd4;" horiz-adv-x="869" d="M440 752q157 0 271 -113t114 -270t-114.5 -269.5t-275.5 -112.5q-160 0 -275.5 112.5t-115.5 269.5q0 160 115.5 271.5t280.5 111.5zM431 684q-127 0 -219.5 -93.5t-92.5 -221.5q0 -129 93 -221.5t223 -92.5q129 0 222 92.5t93 220.5q0 131 -93 223.5t-226 92.5zM257 805 l145 126h66l143 -126h-89l-86 74l-88 -74h-91z" />
<glyph unicode="&#xd5;" horiz-adv-x="869" d="M440 752q157 0 271 -113t114 -270t-114.5 -269.5t-275.5 -112.5q-160 0 -275.5 112.5t-115.5 269.5q0 160 115.5 271.5t280.5 111.5zM431 684q-127 0 -219.5 -93.5t-92.5 -221.5q0 -129 93 -221.5t223 -92.5q129 0 222 92.5t93 220.5q0 131 -93 223.5t-226 92.5zM557 910 l33 -46q-12 -20 -39 -34.5t-52 -14.5q-19 0 -66 22q-25 10 -40 10q-14 0 -23.5 -4.5t-29.5 -21.5l-7 -6l-33 46q36 49 93 49q21 0 59 -17q34 -14 48 -14q27 0 57 31z" />
<glyph unicode="&#xd6;" horiz-adv-x="869" d="M440 752q157 0 271 -113t114 -270t-114.5 -269.5t-275.5 -112.5q-160 0 -275.5 112.5t-115.5 269.5q0 160 115.5 271.5t280.5 111.5zM431 684q-127 0 -219.5 -93.5t-92.5 -221.5q0 -129 93 -221.5t223 -92.5q129 0 222 92.5t93 220.5q0 131 -93 223.5t-226 92.5zM324 931 h74v-126h-74v126zM471 931h74v-126h-74v126z" />
<glyph unicode="&#xd7;" horiz-adv-x="606" d="M355 299l200 -200l-52 -51l-200 200l-200 -200l-52 51l200 200l-200 201l52 51l200 -200l200 200l52 -51z" />
<glyph unicode="&#xd8;" horiz-adv-x="868" d="M83 -42l93 124q-132 110 -132 288q0 161 112 271.5t275 110.5q125 0 205 -56l94 125l54 -42l-92 -123q132 -111 132 -284q0 -161 -112.5 -273t-273.5 -112q-113 0 -205 55l-94 -125zM219 138l376 503q-71 43 -165 43q-131 0 -221 -92t-90 -226t100 -228zM650 600 l-376 -503q80 -42 162 -42q131 0 222 91t91 223q0 135 -99 231z" />
<glyph unicode="&#xd9;" horiz-adv-x="655" d="M76 739h74v-461q0 -101 34 -153q21 -32 59.5 -51t83.5 -19q46 0 84.5 19t59.5 51q34 52 34 153v461h74v-461q0 -131 -52 -200q-69 -91 -200 -91q-130 0 -199 91q-52 69 -52 200v461zM211 958l198 -110l-33 -56l-197 108z" />
<glyph unicode="&#xda;" horiz-adv-x="655" d="M76 739h74v-461q0 -101 34 -153q21 -32 59.5 -51t83.5 -19q46 0 84.5 19t59.5 51q34 52 34 153v461h74v-461q0 -131 -52 -200q-69 -91 -200 -91q-130 0 -199 91q-52 69 -52 200v461zM247 848l193 116l34 -58l-193 -114z" />
<glyph unicode="&#xdb;" horiz-adv-x="655" d="M76 739h74v-461q0 -101 34 -153q21 -32 59.5 -51t83.5 -19q46 0 84.5 19t59.5 51q34 52 34 153v461h74v-461q0 -131 -52 -200q-69 -91 -200 -91q-130 0 -199 91q-52 69 -52 200v461zM150 805l145 126h66l143 -126h-89l-86 74l-88 -74h-91z" />
<glyph unicode="&#xdc;" horiz-adv-x="655" d="M76 739h74v-461q0 -101 34 -153q21 -32 59.5 -51t83.5 -19q46 0 84.5 19t59.5 51q34 52 34 153v461h74v-461q0 -131 -52 -200q-69 -91 -200 -91q-130 0 -199 91q-52 69 -52 200v461zM217 931h74v-126h-74v126zM364 931h74v-126h-74v126z" />
<glyph unicode="&#xdd;" horiz-adv-x="592" d="M258 0v247l-256 492h82l210 -414l215 414h81l-258 -492v-247h-74zM216 848l193 116l34 -58l-193 -114z" />
<glyph unicode="&#xde;" horiz-adv-x="592" d="M76 0v739h67v-133h137q133 0 197 -39q88 -52 88 -185q0 -116 -74 -170q-63 -46 -199 -46h-142v-166h-74zM150 233h137q99 0 142 25q61 33 61 125q0 113 -83 140q-48 16 -152 16h-105v-306z" />
<glyph unicode="&#xdf;" d="M59 0v481q0 122 36 183q23 41 68 64.5t100 23.5q91 0 151 -59.5t60 -148.5q0 -105 -85 -155q135 -43 135 -190q0 -92 -58.5 -152t-146.5 -60q-130 0 -186 122v-109h-74zM133 203h51q1 -65 38.5 -106.5t94.5 -41.5q56 0 94 41t38 101q0 69 -47.5 107.5t-132.5 38.5 q-14 0 -45 -2v67h13q75 0 118.5 37.5t43.5 102.5q0 59 -38.5 97.5t-96.5 38.5q-35 0 -64.5 -17t-43.5 -46q-23 -46 -23 -140v-278z" />
<glyph unicode="&#xe0;" horiz-adv-x="683" d="M620 547v-547h-74v96q-44 -59 -92 -84t-118 -25q-127 0 -210.5 81t-83.5 204t82.5 205.5t205.5 82.5q71 0 123 -26t93 -84v97h74zM329 492q-88 0 -150 -63.5t-62 -153.5q0 -92 63.5 -156t154.5 -64q89 0 150 63.5t61 156.5t-62 155t-155 62zM235 776l198 -110l-33 -56 l-197 108z" />
<glyph unicode="&#xe1;" horiz-adv-x="683" d="M620 547v-547h-74v96q-44 -59 -92 -84t-118 -25q-127 0 -210.5 81t-83.5 204t82.5 205.5t205.5 82.5q71 0 123 -26t93 -84v97h74zM329 492q-88 0 -150 -63.5t-62 -153.5q0 -92 63.5 -156t154.5 -64q89 0 150 63.5t61 156.5t-62 155t-155 62zM271 666l193 116l34 -58 l-193 -114z" />
<glyph unicode="&#xe2;" horiz-adv-x="683" d="M620 547v-547h-74v96q-44 -59 -92 -84t-118 -25q-127 0 -210.5 81t-83.5 204t82.5 205.5t205.5 82.5q71 0 123 -26t93 -84v97h74zM329 492q-88 0 -150 -63.5t-62 -153.5q0 -92 63.5 -156t154.5 -64q89 0 150 63.5t61 156.5t-62 155t-155 62zM174 623l145 126h66l143 -126 h-89l-86 74l-88 -74h-91z" />
<glyph unicode="&#xe3;" horiz-adv-x="683" d="M620 547v-547h-74v96q-44 -59 -92 -84t-118 -25q-127 0 -210.5 81t-83.5 204t82.5 205.5t205.5 82.5q71 0 123 -26t93 -84v97h74zM329 492q-88 0 -150 -63.5t-62 -153.5q0 -92 63.5 -156t154.5 -64q89 0 150 63.5t61 156.5t-62 155t-155 62zM463 728l33 -46 q-12 -20 -39 -34.5t-52 -14.5q-19 0 -66 22q-25 10 -40 10q-14 0 -23.5 -4.5t-29.5 -21.5l-7 -6l-33 46q36 49 93 49q21 0 59 -17q34 -14 48 -14q27 0 57 31z" />
<glyph unicode="&#xe4;" horiz-adv-x="683" d="M620 547v-547h-74v96q-44 -59 -92 -84t-118 -25q-127 0 -210.5 81t-83.5 204t82.5 205.5t205.5 82.5q71 0 123 -26t93 -84v97h74zM329 492q-88 0 -150 -63.5t-62 -153.5q0 -92 63.5 -156t154.5 -64q89 0 150 63.5t61 156.5t-62 155t-155 62zM241 749h74v-126h-74v126z M388 749h74v-126h-74v126z" />
<glyph unicode="&#xe5;" horiz-adv-x="683" d="M620 547v-547h-74v96q-44 -59 -92 -84t-118 -25q-127 0 -210.5 81t-83.5 204t82.5 205.5t205.5 82.5q71 0 123 -26t93 -84v97h74zM329 492q-88 0 -150 -63.5t-62 -153.5q0 -92 63.5 -156t154.5 -64q89 0 150 63.5t61 156.5t-62 155t-155 62zM352 794q37 0 64 -27t27 -65 t-27 -65t-65 -27t-65 26.5t-27 64.5q0 39 27 66t66 27zM350 753q-20 0 -35 -15t-15 -37q0 -21 15 -35.5t36 -14.5t36 15t15 35q0 22 -15 37t-37 15z" />
<glyph unicode="&#xe6;" horiz-adv-x="1157" d="M1118 247h-495q7 -82 69 -137t147 -55q63 0 114.5 33.5t74.5 89.5h77q-29 -86 -102 -138.5t-164 -52.5q-130 0 -220 105v-92h-71v92q-47 -56 -98 -80.5t-119 -24.5q-123 0 -206 82t-83 203q0 117 77 200q80 88 211 88q139 0 218 -108v95h71v-95q86 108 215 108 q77 0 141.5 -36t103.5 -101t39 -176zM626 314h420q-15 81 -72.5 129.5t-137.5 48.5q-82 0 -140 -49.5t-70 -128.5zM331 492q-91 0 -152 -63t-61 -155t62 -155.5t153 -63.5q92 0 154.5 64t62.5 158t-62 154.5t-157 60.5z" />
<glyph unicode="&#xe7;" horiz-adv-x="647" d="M343 -13l-19 -45q16 7 32 7q35 0 56 -22t21 -58q0 -41 -25 -67t-64 -26q-71 0 -87 73l44 5q9 -35 44 -35q20 0 32.5 13t12.5 33q0 23 -13 37t-34 14q-23 0 -42 -24l-30 18l35 79q-116 12 -190 92.5t-74 193.5q0 119 85 202t208 83q93 0 166 -48t106 -131h-83 q-65 111 -190 111q-91 0 -154 -63.5t-63 -155.5q0 -91 64 -154.5t156 -63.5q58 0 101 24.5t86 81.5h84q-82 -171 -265 -174z" />
<glyph unicode="&#xe8;" horiz-adv-x="650" d="M611 249h-495q5 -81 66.5 -137.5t146.5 -56.5q62 0 115 34.5t76 90.5h77q-30 -86 -103.5 -139.5t-162.5 -53.5q-121 0 -205 83.5t-84 205.5q0 119 82 201.5t201 82.5q81 0 149 -40t104 -109q33 -63 33 -162zM118 316h419q-19 82 -75.5 129t-136.5 47q-78 0 -135 -48.5 t-72 -127.5zM214 776l198 -110l-33 -56l-197 108z" />
<glyph unicode="&#xe9;" horiz-adv-x="650" d="M611 249h-495q5 -81 66.5 -137.5t146.5 -56.5q62 0 115 34.5t76 90.5h77q-30 -86 -103.5 -139.5t-162.5 -53.5q-121 0 -205 83.5t-84 205.5q0 119 82 201.5t201 82.5q81 0 149 -40t104 -109q33 -63 33 -162zM118 316h419q-19 82 -75.5 129t-136.5 47q-78 0 -135 -48.5 t-72 -127.5zM246 666l193 116l34 -58l-193 -114z" />
<glyph unicode="&#xea;" horiz-adv-x="650" d="M611 249h-495q5 -81 66.5 -137.5t146.5 -56.5q62 0 115 34.5t76 90.5h77q-30 -86 -103.5 -139.5t-162.5 -53.5q-121 0 -205 83.5t-84 205.5q0 119 82 201.5t201 82.5q81 0 149 -40t104 -109q33 -63 33 -162zM118 316h419q-19 82 -75.5 129t-136.5 47q-78 0 -135 -48.5 t-72 -127.5zM153 623l145 126h66l143 -126h-89l-86 74l-88 -74h-91z" />
<glyph unicode="&#xeb;" horiz-adv-x="650" d="M611 249h-495q5 -81 66.5 -137.5t146.5 -56.5q62 0 115 34.5t76 90.5h77q-30 -86 -103.5 -139.5t-162.5 -53.5q-121 0 -205 83.5t-84 205.5q0 119 82 201.5t201 82.5q81 0 149 -40t104 -109q33 -63 33 -162zM118 316h419q-19 82 -75.5 129t-136.5 47q-78 0 -135 -48.5 t-72 -127.5zM219 749h74v-126h-74v126zM366 749h74v-126h-74v126z" />
<glyph unicode="&#xec;" horiz-adv-x="200" d="M63 0v547h74v-547h-74zM17 776l198 -110l-33 -56l-197 108z" />
<glyph unicode="&#xed;" horiz-adv-x="200" d="M63 0v547h74v-547h-74zM-13 666l193 116l34 -58l-193 -114z" />
<glyph unicode="&#xee;" horiz-adv-x="200" d="M63 0v547h74v-547h-74zM-77 623l145 126h66l143 -126h-89l-86 74l-88 -74h-91z" />
<glyph unicode="&#xef;" horiz-adv-x="200" d="M-10 749h74v-126h-74v126zM137 749h74v-126h-74v126zM64 0v547h74v-547h-74z" />
<glyph unicode="&#xf0;" horiz-adv-x="655" d="M213 727l53 29q34 -24 68 -55l95 42l39 -44l-89 -39q56 -49 125 -123q58 -64 83.5 -124t25.5 -134q0 -129 -77.5 -210.5t-201.5 -81.5q-126 0 -209 81.5t-83 205.5q0 121 78.5 201.5t195.5 80.5q41 0 96 -18q-63 64 -95 92l-87 -39l-36 46l79 35q-7 7 -11.5 11t-10.5 10 t-13 12q-13 11 -25 22zM326 492q-90 0 -149.5 -62.5t-59.5 -157.5q0 -94 61 -155.5t155 -61.5q90 0 147.5 60.5t57.5 155.5q0 97 -59.5 159t-152.5 62z" />
<glyph unicode="&#xf1;" horiz-adv-x="610" d="M63 0v547h74v-71q68 84 176 84q120 0 186 -85q26 -35 37 -77t11 -111v-287h-74v287q0 102 -39 149q-47 56 -130 56q-95 0 -141 -70q-26 -41 -26 -121v-301h-74zM410 728l33 -46q-12 -20 -39 -34.5t-52 -14.5q-19 0 -66 22q-25 10 -40 10q-14 0 -23.5 -4.5t-29.5 -21.5 l-7 -6l-33 46q36 49 93 49q21 0 59 -17q34 -14 48 -14q27 0 57 31z" />
<glyph unicode="&#xf2;" horiz-adv-x="655" d="M332 560q121 0 201 -82t80 -206q0 -123 -79 -204t-200 -81q-125 0 -208.5 81.5t-83.5 204.5q0 125 82 206t208 81zM326 492q-90 0 -149.5 -62.5t-59.5 -157.5q0 -94 61 -155.5t154 -61.5q90 0 148 61t58 155q0 97 -59.5 159t-152.5 62zM211 776l198 -110l-33 -56 l-197 108z" />
<glyph unicode="&#xf3;" horiz-adv-x="655" d="M332 560q121 0 201 -82t80 -206q0 -123 -79 -204t-200 -81q-125 0 -208.5 81.5t-83.5 204.5q0 125 82 206t208 81zM326 492q-90 0 -149.5 -62.5t-59.5 -157.5q0 -94 61 -155.5t154 -61.5q90 0 148 61t58 155q0 97 -59.5 159t-152.5 62zM247 666l193 116l34 -58l-193 -114 z" />
<glyph unicode="&#xf4;" horiz-adv-x="655" d="M332 560q121 0 201 -82t80 -206q0 -123 -79 -204t-200 -81q-125 0 -208.5 81.5t-83.5 204.5q0 125 82 206t208 81zM326 492q-90 0 -149.5 -62.5t-59.5 -157.5q0 -94 61 -155.5t154 -61.5q90 0 148 61t58 155q0 97 -59.5 159t-152.5 62zM150 623l145 126h66l143 -126h-89 l-86 74l-88 -74h-91z" />
<glyph unicode="&#xf5;" horiz-adv-x="655" d="M332 560q121 0 201 -82t80 -206q0 -123 -79 -204t-200 -81q-125 0 -208.5 81.5t-83.5 204.5q0 125 82 206t208 81zM326 492q-90 0 -149.5 -62.5t-59.5 -157.5q0 -94 61 -155.5t154 -61.5q90 0 148 61t58 155q0 97 -59.5 159t-152.5 62zM446 728l33 -46q-12 -20 -39 -34.5 t-52 -14.5q-19 0 -66 22q-25 10 -40 10q-14 0 -23.5 -4.5t-29.5 -21.5l-7 -6l-33 46q36 49 93 49q21 0 59 -17q34 -14 48 -14q27 0 57 31z" />
<glyph unicode="&#xf6;" horiz-adv-x="655" d="M332 560q121 0 201 -82t80 -206q0 -123 -79 -204t-200 -81q-125 0 -208.5 81.5t-83.5 204.5q0 125 82 206t208 81zM326 492q-90 0 -149.5 -62.5t-59.5 -157.5q0 -94 61 -155.5t154 -61.5q90 0 148 61t58 155q0 97 -59.5 159t-152.5 62zM217 749h74v-126h-74v126zM364 749 h74v-126h-74v126z" />
<glyph unicode="&#xf7;" horiz-adv-x="606" d="M346 409h-87v87h87v-87zM346 112h-87v87h87v-87zM555 341v-74h-504v74h504z" />
<glyph unicode="&#xf8;" horiz-adv-x="653" d="M73 1l51 67q-45 52 -63.5 98.5t-18.5 105.5q0 120 83 204t203 84q80 0 146 -41l57 75l53 -42l-56 -74q83 -77 83 -197q0 -128 -79.5 -211t-202.5 -83q-74 0 -151 41l-52 -67zM166 121l268 347q-48 24 -105 24q-90 0 -151 -65t-61 -161q0 -75 49 -145zM487 426l-269 -347 q53 -24 105 -24q94 0 153.5 62.5t59.5 162.5q0 84 -49 146z" />
<glyph unicode="&#xf9;" horiz-adv-x="608" d="M545 547v-547h-74v85q-53 -98 -176 -98q-131 0 -192 92q-40 57 -40 173v295h74v-295q0 -89 28 -132q41 -65 135 -65q90 0 138 68q33 49 33 143v281h74zM188 776l198 -110l-33 -56l-197 108z" />
<glyph unicode="&#xfa;" horiz-adv-x="608" d="M545 547v-547h-74v85q-53 -98 -176 -98q-131 0 -192 92q-40 57 -40 173v295h74v-295q0 -89 28 -132q41 -65 135 -65q90 0 138 68q33 49 33 143v281h74zM224 666l193 116l34 -58l-193 -114z" />
<glyph unicode="&#xfb;" horiz-adv-x="608" d="M545 547v-547h-74v85q-53 -98 -176 -98q-131 0 -192 92q-40 57 -40 173v295h74v-295q0 -89 28 -132q41 -65 135 -65q90 0 138 68q33 49 33 143v281h74zM127 623l145 126h66l143 -126h-89l-86 74l-88 -74h-91z" />
<glyph unicode="&#xfc;" horiz-adv-x="608" d="M545 547v-547h-74v85q-53 -98 -176 -98q-131 0 -192 92q-40 57 -40 173v295h74v-295q0 -89 28 -132q41 -65 135 -65q90 0 138 68q33 49 33 143v281h74zM194 749h74v-126h-74v126zM341 749h74v-126h-74v126z" />
<glyph unicode="&#xfd;" horiz-adv-x="536" d="M132 -192l89 210l-212 529h81l173 -436l185 436h79l-316 -739h-79zM195 666l193 116l34 -58l-193 -114z" />
<glyph unicode="&#xfe;" horiz-adv-x="682" d="M63 739h74v-286q70 107 215 107q122 0 205 -82.5t83 -204.5q0 -121 -83.5 -203.5t-206.5 -82.5q-140 0 -213 107v-286h-74v931zM346 492q-90 0 -152 -63.5t-62 -155.5t62.5 -155t154.5 -63t154 62t62 154q0 97 -62 159t-157 62z" />
<glyph unicode="&#xff;" horiz-adv-x="536" d="M132 -192l89 210l-212 529h81l173 -436l185 436h79l-316 -739h-79zM155 749h74v-126h-74v126zM302 749h74v-126h-74v126z" />
<glyph unicode="&#x152;" horiz-adv-x="1194" d="M745 739h393v-67h-319v-265h308v-67h-308v-273h319v-67h-393v151q-93 -164 -300 -164q-173 0 -287 109t-114 275q0 163 110.5 272t277.5 109q104 0 185.5 -41.5t127.5 -118.5v147zM427 684q-132 0 -220 -89.5t-88 -223.5t91.5 -225t227.5 -91q134 0 221 89.5t87 226.5 q0 138 -89 225.5t-230 87.5z" />
<glyph unicode="&#x153;" horiz-adv-x="1137" d="M1096 248h-488q4 -66 49 -118q66 -75 167 -75q128 0 188 124h74q-21 -76 -88 -132q-70 -60 -170 -60q-86 0 -154.5 40t-102.5 111q-45 -79 -102.5 -115t-137.5 -36q-123 0 -206 82.5t-83 204.5q0 121 81.5 203.5t200.5 82.5q159 0 247 -146q85 146 245 146 q120 0 201 -78.5t81 -195.5q0 -4 -2 -38zM608 315h419q-14 80 -72 128.5t-140 48.5q-76 0 -131.5 -47t-75.5 -130zM323 492q-88 0 -147 -62.5t-59 -156.5q0 -92 61.5 -155t152.5 -63q88 0 146.5 63t58.5 157t-60.5 155.5t-152.5 61.5z" />
<glyph unicode="&#x178;" horiz-adv-x="592" d="M258 0v247l-256 492h82l210 -414l215 414h81l-258 -492v-247h-74zM186 931h74v-126h-74v126zM333 931h74v-126h-74v126z" />
<glyph unicode="&#x2c6;" horiz-adv-x="502" d="M74 623l145 126h66l143 -126h-89l-86 74l-88 -74h-91z" />
<glyph unicode="&#x2dc;" horiz-adv-x="439" d="M332 728l33 -46q-12 -20 -39 -34.5t-52 -14.5q-19 0 -66 22q-25 10 -40 10q-14 0 -23.5 -4.5t-29.5 -21.5l-7 -6l-33 46q36 49 93 49q21 0 59 -17q34 -14 48 -14q27 0 57 31z" />
<glyph unicode="&#x2000;" horiz-adv-x="488" />
<glyph unicode="&#x2001;" horiz-adv-x="976" />
<glyph unicode="&#x2002;" horiz-adv-x="488" />
<glyph unicode="&#x2003;" horiz-adv-x="976" />
<glyph unicode="&#x2004;" horiz-adv-x="325" />
<glyph unicode="&#x2005;" horiz-adv-x="244" />
<glyph unicode="&#x2006;" horiz-adv-x="162" />
<glyph unicode="&#x2007;" horiz-adv-x="162" />
<glyph unicode="&#x2008;" horiz-adv-x="122" />
<glyph unicode="&#x2009;" horiz-adv-x="195" />
<glyph unicode="&#x200a;" horiz-adv-x="54" />
<glyph unicode="&#x2010;" horiz-adv-x="332" d="M31 296h271v-63h-271v63z" />
<glyph unicode="&#x2011;" horiz-adv-x="332" d="M31 296h271v-63h-271v63z" />
<glyph unicode="&#x2012;" horiz-adv-x="332" d="M31 296h271v-63h-271v63z" />
<glyph unicode="&#x2013;" horiz-adv-x="500" d="M0 296h500v-63h-500v63z" />
<glyph unicode="&#x2014;" horiz-adv-x="1000" d="M0 296h1000v-63h-1000v63z" />
<glyph unicode="&#x2018;" horiz-adv-x="351" d="M260 547h-74l-88 192h74z" />
<glyph unicode="&#x2019;" horiz-adv-x="351" d="M91 547l88 192h74l-88 -192h-74z" />
<glyph unicode="&#x201a;" horiz-adv-x="354" d="M89 -67l88 193h74l-88 -193h-74z" />
<glyph unicode="&#x201c;" horiz-adv-x="502" d="M406 547h-74l-88 192h74zM258 547h-74l-88 192h74z" />
<glyph unicode="&#x201d;" horiz-adv-x="484" d="M87 547l88 192h74l-88 -192h-74zM231 547l88 192h74l-88 -192h-74z" />
<glyph unicode="&#x201e;" horiz-adv-x="502" d="M89 -67l88 193h74l-88 -193h-74zM236 -67l88 193h74l-88 -193h-74z" />
<glyph unicode="&#x2022;" horiz-adv-x="606" d="M306 488q75 0 128.5 -54.5t53.5 -130.5q0 -77 -54 -131t-131 -54t-131 54t-54 131q0 78 54.5 131.5t133.5 53.5z" />
<glyph unicode="&#x2026;" horiz-adv-x="1000" d="M130 0v126h74v-126h-74zM463 0v126h74v-126h-74zM796 0v126h74v-126h-74z" />
<glyph unicode="&#x202f;" horiz-adv-x="195" />
<glyph unicode="&#x2039;" horiz-adv-x="251" d="M152 99l-112 201l112 199l59 -32l-93 -167l93 -168z" />
<glyph unicode="&#x203a;" horiz-adv-x="251" d="M99 99l-59 33l93 168l-93 167l59 32l112 -199z" />
<glyph unicode="&#x205f;" horiz-adv-x="244" />
<glyph unicode="&#x20ac;" horiz-adv-x="870" d="M783 67q-97 -80 -236 -80q-137 0 -239 76t-136 200h-126l30 67h85q-2 12 -2 37q0 20 1 30h-114l30 67h94q30 129 131.5 208.5t240.5 79.5q87 0 162 -32.5t126 -91.5l-34 -77q-21 33 -39 52t-43 34q-74 47 -169 47q-107 0 -188 -60.5t-110 -159.5h511l-30 -67h-493 q-1 -9 -1 -27q0 -14 2 -40h463l-30 -67h-417q33 -92 113.5 -150t180.5 -58q141 0 237 114v-102z" />
<glyph unicode="&#x2122;" horiz-adv-x="1000" d="M938 739v-399h-64v344l-156 -344h-42l-151 345v-345h-64v399h109l127 -284l135 284h106zM413 739v-58h-144v-341h-64v341h-142v58h350z" />
<glyph unicode="&#x25fc;" horiz-adv-x="545" d="M0 545h545v-545h-545v545z" />
</font>
</defs>
</svg>
