<?xml version="1.0" standalone="no"?>
<!DOCTYPE svg PUBLIC "-//W3C//DTD SVG 1.1//EN" "http://www.w3.org/Graphics/SVG/1.1/DTD/svg11.dtd" >
<svg xmlns="http://www.w3.org/2000/svg" xmlns:xlink="http://www.w3.org/1999/xlink" version="1.1">
<metadata></metadata>
<defs>
<font id="evolventaoblique" horiz-adv-x="554" >
<font-face units-per-em="1000" ascent="800" descent="-200" />
<missing-glyph horiz-adv-x="277" />
<glyph unicode="&#xfb01;" horiz-adv-x="490" d="M101 0l89 480h-85l12 67h85q35 192 246 192l-12 -67q-76 0 -111.5 -28t-48.5 -97h136l-12 -67h-136l-89 -480h-74zM353 0l101 547h74l-101 -547h-74zM467 613l23 126h74l-23 -126h-74z" />
<glyph unicode="&#xfb02;" horiz-adv-x="490" d="M101 0l89 480h-85l12 67h85q35 192 246 192l-12 -67q-76 0 -111.5 -28t-48.5 -97h136l-12 -67h-136l-89 -480h-74zM353 0l137 739h74l-137 -739h-74z" />
<glyph unicode="&#xfb03;" horiz-adv-x="742" d="M101 0l89 480h-85l12 67h85q35 192 246 192l-12 -67q-76 0 -111.5 -28t-48.5 -97h178q35 192 246 192l-12 -67q-76 0 -111.5 -28t-48.5 -97h136l-12 -67h-136l-89 -480h-74l89 480h-178l-89 -480h-74zM605 0l101 547h74l-101 -547h-74zM719 613l23 126h74l-23 -126h-74z " />
<glyph unicode="&#xfb04;" horiz-adv-x="742" d="M101 0l89 480h-85l12 67h85q35 192 246 192l-12 -67q-76 0 -111.5 -28t-48.5 -97h178q35 192 246 192l-12 -67q-76 0 -111.5 -28t-48.5 -97h136l-12 -67h-136l-89 -480h-74l89 480h-178l-89 -480h-74zM605 0l137 739h74l-137 -739h-74z" />
<glyph horiz-adv-x="0" />
<glyph horiz-adv-x="333" />
<glyph unicode=" "  horiz-adv-x="277" />
<glyph unicode="&#x09;" horiz-adv-x="277" />
<glyph unicode="&#xa0;" horiz-adv-x="277" />
<glyph unicode="!" horiz-adv-x="295" d="M111 0l23 126h74l-23 -126h-74zM148 197l100 542h74l-100 -542h-74z" />
<glyph unicode="&#x22;" horiz-adv-x="309" d="M332 513h-50l42 226h50zM219 513h-50l42 226h50z" />
<glyph unicode="#" d="M589 298l-11 -61h-135l-87 -237h-66l87 237h-164l-89 -237h-65l89 237h-99l11 61h111l58 155h-124l11 61h135l84 225h64l-83 -225h163l82 225h67l-83 -225h99l-11 -61h-110l-57 -155h123zM457 453h-163l-58 -155h163z" />
<glyph unicode="$" d="M235 -56l15 85q-139 27 -139 149q0 20 5 50h70q-2 -20 -2 -28q0 -52 29 -81t81 -29q56 0 99.5 38t53.5 96q2 9 2 27q0 41 -27 70q-24 23 -85 42q-53 17 -77.5 32.5t-39.5 40.5q-21 31 -21 79q0 17 3 37q13 68 61 115t117 61l15 82h66l-15 -82q63 -10 97 -48.5t34 -98.5 q0 -16 -3 -34h-70q2 16 2 23q0 45 -25 70t-71 25q-52 0 -88 -32t-47 -87q-3 -15 -3 -27q0 -32 23 -52t80 -39q88 -30 116 -65q34 -39 34 -97q0 -21 -4 -40q-15 -80 -72 -135t-133 -62l-15 -85h-66z" />
<glyph unicode="%" horiz-adv-x="775" d="M651 739h74l-471 -739h-72zM642 338q62 0 102.5 -41.5t40.5 -102.5q0 -14 -3 -31q-14 -73 -74.5 -124.5t-133.5 -51.5q-63 0 -104.5 41t-41.5 102q0 16 3 32q13 74 74.5 125t136.5 51zM625 272q-44 0 -81.5 -32.5t-45.5 -76.5q-2 -14 -2 -20q0 -38 25.5 -64t64.5 -26 q45 0 82.5 32t45.5 77q2 14 2 21q0 39 -25.5 64t-65.5 25zM330 749q62 0 102.5 -41.5t40.5 -102.5q0 -15 -3 -32q-14 -73 -74.5 -124.5t-133.5 -51.5q-63 0 -104.5 41t-41.5 103q0 15 3 32q14 74 75 125t136 51zM313 683q-44 0 -82 -32.5t-46 -77.5q-2 -14 -2 -20 q0 -39 25.5 -64.5t65.5 -25.5q44 0 82 32t46 77q2 14 2 22q0 39 -25 64t-66 25z" />
<glyph unicode="&#x26;" horiz-adv-x="757" d="M691 481h82l-184 -261l153 -182l-60 -51l-141 166q-60 -88 -119.5 -127t-133.5 -39q-88 0 -142 50.5t-54 131.5q0 24 4 44q18 101 116 168q38 26 95 52q-56 73 -56 125q0 15 3 30q13 69 72.5 116.5t132.5 47.5q67 0 108.5 -38.5t41.5 -98.5q0 -15 -3 -32 q-15 -82 -94 -130q-15 -11 -82 -42l115 -138zM496 206l-146 174q-90 -40 -130.5 -79.5t-51.5 -95.5q-3 -14 -3 -28q0 -54 36.5 -88.5t93.5 -34.5q53 0 99.5 35t101.5 117zM386 464q136 49 151 125q2 12 2 18q0 35 -25 56.5t-65 21.5q-43 0 -78 -27.5t-43 -67.5q-1 -6 -1 -16 q0 -45 59 -110z" />
<glyph unicode="'" horiz-adv-x="198" d="M219 513h-50l42 226h50z" />
<glyph unicode="(" horiz-adv-x="369" d="M472 739l-12 -63q-91 -50 -157 -131q-92 -115 -115 -236q-7 -35 -7 -75q0 -113 55 -205q31 -50 88 -89l-12 -65q-55 21 -92 56.5t-67 94.5q-47 92 -47 194q0 48 8 89q18 95 73.5 187t135.5 160q65 56 149 83z" />
<glyph unicode=")" horiz-adv-x="369" d="M11 -125l12 64q92 50 157 131q93 115 115 236q6 29 6 74q0 115 -55 205q-32 51 -87 89l12 65q55 -21 92 -56t67 -94q47 -92 47 -194q0 -49 -8 -90q-17 -94 -72.5 -186.5t-136.5 -160.5q-68 -57 -149 -83z" />
<glyph unicode="*" horiz-adv-x="425" d="M406 752l42 -28l-74 -92l104 3l-10 -52l-102 2l39 -90l-52 -27l-36 91l-70 -91l-43 28l73 89l-105 -2l10 52l104 -3l-39 92l54 28l37 -90z" />
<glyph unicode="+" horiz-adv-x="606" d="M328 341l40 216h77l-40 -216h213l-14 -74h-213l-40 -218h-77l40 218h-214l14 74h214z" />
<glyph unicode="," horiz-adv-x="277" d="M79 -67l123 193h74l-123 -193h-74z" />
<glyph unicode="-" horiz-adv-x="332" d="M86 296h271l-12 -63h-271z" />
<glyph unicode="." horiz-adv-x="277" d="M101 0l23 126h74l-23 -126h-74z" />
<glyph unicode="/" horiz-adv-x="437" d="M16 -128l448 867h70l-451 -867h-67z" />
<glyph unicode="0" d="M80 269l39 210q24 129 93 195q80 78 204 78q140 0 190 -104q18 -38 18 -82q0 -37 -10 -87l-39 -210q-24 -131 -84 -195q-79 -87 -210 -87q-156 0 -199 116q-11 30 -11 77q0 40 9 89zM504 281l34 181q10 53 10 89q0 42 -18 72q-37 62 -125 62q-50 0 -94 -22t-72 -60 q-33 -45 -50 -141l-34 -181q-10 -50 -10 -88q0 -44 15 -73q37 -66 130 -66q112 0 166 84q31 46 48 143z" />
<glyph unicode="1" d="M281 0l125 672h-126l12 67h199l-137 -739h-73z" />
<glyph unicode="2" d="M33 0l12 67l306 250q73 59 104 90q63 61 75 124q3 17 3 31q0 55 -36.5 89t-97.5 34q-49 0 -91 -23t-68 -64q-24 -36 -35 -98h-73q12 65 36 108q38 68 102.5 106t141.5 38q89 0 142.5 -49.5t53.5 -130.5q0 -24 -4 -45q-11 -59 -49.5 -109t-130.5 -124l-279 -227h369 l-12 -67h-469z" />
<glyph unicode="3" d="M258 555h-73q20 91 80 144t143 53q72 0 114 -40.5t42 -106.5q0 -21 -4 -40q-16 -89 -103 -142q93 -51 93 -153q0 -25 -4 -46q-19 -100 -98.5 -168.5t-176.5 -68.5q-69 0 -119 32.5t-70 88.5q-11 33 -11 68q0 20 5 55h73q-3 -26 -3 -44q0 -37 15 -65q35 -68 119 -68 q68 0 123 48t68 118q3 16 3 32q0 48 -26.5 83.5t-71.5 46.5q-22 5 -85 6l12 66q29 -2 36 -2q58 0 97.5 31.5t49.5 85.5q3 14 3 26q0 41 -25 65.5t-68 24.5q-54 0 -90 -34t-48 -96z" />
<glyph unicode="4" d="M386 0l25 135h-374l12 67l460 537h87l-100 -537h68l-12 -67h-68l-25 -135h-73zM423 202l81 435l-370 -435h289z" />
<glyph unicode="5" d="M137 375l133 364h333l-12 -67h-274l-74 -204q70 35 133 35q90 0 146 -57.5t56 -147.5q0 -28 -4 -52q-20 -109 -106 -184t-190 -75q-74 0 -128.5 39.5t-73.5 107.5q-8 28 -8 63q0 22 1 35h72q0 -2 -0.5 -8t-0.5 -8q0 -73 40 -117.5t107 -44.5q75 0 136.5 55.5t76.5 136.5 q3 14 3 40q0 67 -40 108.5t-105 41.5q-87 0 -169 -83z" />
<glyph unicode="6" d="M433 739h85l-222 -257q47 21 90 21q86 0 140 -57t54 -146q0 -21 -5 -51q-21 -114 -105 -188t-192 -74q-95 0 -154 57t-59 148q0 22 5 52q11 56 36.5 100t93.5 123zM357 436q-75 0 -136 -54.5t-76 -135.5q-4 -19 -4 -41q0 -67 40.5 -109t107.5 -42q77 0 136 53.5t75 137.5 q5 25 5 44q0 67 -39.5 107t-108.5 40z" />
<glyph unicode="7" d="M110 0l429 672h-350l12 67h426l-12 -67l-427 -672h-78z" />
<glyph unicode="8" d="M244 413q-30 20 -43 39q-19 31 -19 74q0 17 3 35q15 82 81.5 136.5t150.5 54.5q75 0 119.5 -41.5t44.5 -109.5q0 -21 -4 -40q-21 -107 -115 -148q95 -46 95 -150q0 -18 -5 -45q-19 -101 -96 -166t-178 -65q-89 0 -144.5 51.5t-55.5 133.5q0 23 4 43q25 137 162 198z M345 375q-70 0 -123.5 -45.5t-66.5 -116.5q-3 -17 -3 -32q0 -57 37.5 -92t99.5 -35q70 0 122.5 45.5t66.5 116.5q3 18 3 34q0 57 -36.5 91t-99.5 34zM402 685q-52 0 -92 -33.5t-50 -85.5q-2 -8 -2 -24q0 -44 28.5 -71t75.5 -27q51 0 91.5 34.5t50.5 86.5q2 9 2 26 q0 43 -28 68.5t-76 25.5z" />
<glyph unicode="9" d="M258 0h-85l222 257q-47 -21 -90 -21q-86 0 -140 57t-54 146q0 21 5 51q21 114 105 188t192 74q95 0 154 -57t59 -148q0 -22 -5 -52q-11 -56 -36.5 -100t-93.5 -123zM399 685q-75 0 -134 -54.5t-75 -137.5q-4 -20 -4 -42q0 -66 40 -107t106 -41q77 0 138 54t76 136 q4 19 4 41q0 67 -41.5 109t-109.5 42z" />
<glyph unicode=":" horiz-adv-x="277" d="M101 0l23 126h74l-23 -126h-74zM172 381l23 126h74l-23 -126h-74z" />
<glyph unicode=";" horiz-adv-x="277" d="M29 -67l123 193h74l-123 -193h-74zM196 381l23 126h74l-23 -126h-74z" />
<glyph unicode="&#x3c;" horiz-adv-x="606" d="M663 565l-15 -78l-435 -187l366 -185l-14 -78l-466 231l12 65z" />
<glyph unicode="=" horiz-adv-x="606" d="M636 436l-14 -74h-504l14 74h504zM599 238l-14 -74h-504l14 74h504z" />
<glyph unicode="&#x3e;" horiz-adv-x="606" d="M55 37l14 78l437 187l-368 185l15 78l466 -231l-12 -65z" />
<glyph unicode="?" horiz-adv-x="591" d="M261 0l23 126h74l-23 -126h-74zM229 508h-70q19 91 66 146q86 98 213 98q86 0 138 -48t52 -126q0 -23 -4 -43q-9 -49 -36 -87t-85 -83q-65 -49 -94.5 -87t-39.5 -85h-70q12 61 43.5 106.5t98.5 97.5q59 47 81 75t29 65q2 10 2 30q0 53 -35 85.5t-92 32.5q-47 0 -89 -21.5 t-68 -59.5q-22 -31 -40 -96z" />
<glyph unicode="@" horiz-adv-x="867" d="M762 574l-144 -278q-31 -62 -34 -77q0 -1 -0.5 -2.5t-0.5 -2.5q0 -23 28 -23q43 0 99 48q95 80 117 195q5 27 5 48q0 97 -69 158t-181 61q-136 0 -250.5 -98t-140.5 -235q-6 -32 -6 -62q0 -116 77 -192.5t198 -76.5q138 0 253 101l33 -33q-58 -55 -137 -86.5t-160 -31.5 q-140 0 -228.5 87t-88.5 221q0 37 7 72q30 160 162 272.5t290 112.5q139 0 222 -85q70 -70 70 -174q0 -29 -6 -60q-26 -141 -145 -235q-74 -59 -142 -59q-35 0 -53.5 13t-24.5 44q-62 -52 -128 -52q-52 0 -83 31t-31 83q0 16 3 34q21 115 114 208t186 93q48 0 76 -22 q18 -13 26 -47l26 50h61zM563 539q-64 0 -133 -77t-85 -168q-2 -8 -2 -23q0 -32 17.5 -50.5t47.5 -18.5q67 0 136 95q30 41 53.5 88t28.5 77q1 6 1 18q0 28 -16.5 43.5t-47.5 15.5z" />
<glyph unicode="A" horiz-adv-x="740" d="M11 0l454 739h83l181 -739h-81l-61 249h-344l-154 -249h-78zM284 316h287l-80 339z" />
<glyph unicode="B" horiz-adv-x="574" d="M76 0l137 739h173q127 0 179 -43q43 -37 43 -106q0 -18 -5 -43q-21 -108 -110 -153q95 -42 95 -135q0 -19 -5 -47q-11 -57 -41.5 -103t-73.5 -70q-72 -39 -209 -39h-183zM162 67h101q110 0 165 27q29 14 51 45t29 69q3 18 3 33q0 77 -64 99q-43 14 -143 14h-88zM228 421 h90q88 0 134 19q62 26 76 106q3 15 3 30q0 49 -27 70q-33 26 -140 26h-89z" />
<glyph unicode="C" horiz-adv-x="813" d="M724 194h82q-150 -207 -376 -207q-145 0 -235 86t-90 221q0 38 7 73q31 166 160 275.5t294 109.5q115 0 196 -55t106 -150h-83q-26 60 -68 90q-65 47 -160 47q-133 0 -238.5 -90t-130.5 -224q-6 -30 -6 -58q0 -110 73 -183.5t186 -73.5q107 0 199 64q39 27 84 75z" />
<glyph unicode="D" horiz-adv-x="744" d="M76 0l137 739h174q104 0 167.5 -14.5t110.5 -48.5q111 -79 111 -227q0 -36 -8 -82q-20 -106 -80.5 -187t-156.5 -129q-102 -51 -256 -51h-199zM162 67h103q102 0 168 16.5t118 54.5q117 87 143 232q6 33 6 63q0 133 -100 195q-68 44 -222 44h-103z" />
<glyph unicode="E" horiz-adv-x="536" d="M76 0l137 739h404l-12 -67h-330l-50 -265h319l-12 -67h-319l-51 -273h330l-12 -67h-404z" />
<glyph unicode="F" horiz-adv-x="485" d="M76 0l137 739h375l-12 -67h-301l-50 -267h290l-12 -67h-290l-63 -338h-74z" />
<glyph unicode="G" horiz-adv-x="872" d="M392 341h502q-33 -134 -146 -235q-130 -119 -304 -119q-150 0 -244 88t-94 225q0 37 7 71q30 161 163.5 271t298.5 110q121 0 206 -57.5t105 -152.5h-83q-25 67 -86.5 104.5t-147.5 37.5q-137 0 -247 -90.5t-135 -224.5q-5 -25 -5 -58q0 -112 75.5 -184t195.5 -72 q136 0 242 92q69 60 98 127h-413z" />
<glyph unicode="H" horiz-adv-x="683" d="M76 0l137 739h74l-60 -325h383l60 325h74l-137 -739h-74l64 347h-383l-64 -347h-74z" />
<glyph unicode="I" horiz-adv-x="226" d="M76 0l137 739h74l-137 -739h-74z" />
<glyph unicode="J" horiz-adv-x="482" d="M543 739l-94 -508q-22 -119 -84.5 -182t-158.5 -63q-79 0 -122 40t-43 113q0 24 2 36h73q-1 -7 -1 -20q0 -47 28 -74t77 -27q122 0 155 177l94 508h74z" />
<glyph unicode="K" horiz-adv-x="591" d="M76 0l137 739h74l-79 -425l421 425h93l-359 -360l222 -379h-93l-187 320l-118 -118l-37 -202h-74z" />
<glyph unicode="L" horiz-adv-x="462" d="M76 0l137 739h74l-125 -672h306l-12 -67h-380z" />
<glyph unicode="M" horiz-adv-x="919" d="M76 0l137 739h115l152 -629l385 629h115l-137 -739h-74l122 658l-400 -658h-64l-155 658l-122 -658h-74z" />
<glyph unicode="N" horiz-adv-x="740" d="M76 0l137 739h100l300 -613l114 613h74l-137 -739h-74l-320 650l-120 -650h-74z" />
<glyph unicode="O" horiz-adv-x="869" d="M579 752q139 0 230 -90.5t91 -224.5q0 -28 -7 -68q-19 -103 -87.5 -191t-168 -139.5t-204.5 -51.5q-142 0 -234.5 90t-92.5 225q0 33 6 67q19 105 88 193t170 139t209 51zM558 684q-127 0 -237 -93.5t-134 -221.5q-5 -24 -5 -56q0 -110 74 -184t189 -74q129 0 239 92.5 t134 220.5q6 30 6 58q0 111 -74.5 184.5t-191.5 73.5z" />
<glyph unicode="P" horiz-adv-x="592" d="M76 0l137 739h204q133 0 190 -39q59 -39 59 -130q0 -26 -6 -55q-22 -116 -105 -170q-71 -46 -208 -46h-142l-55 -299h-74zM218 366h137q99 0 146 25q68 33 85 125q4 19 4 40q0 79 -61 100q-45 16 -149 16h-105z" />
<glyph unicode="Q" horiz-adv-x="871" d="M837 56l-12 -69q-52 1 -86 15t-65 49q-108 -64 -233 -64q-148 0 -241.5 88.5t-93.5 224.5q0 35 6 69q31 164 165 273.5t306 109.5q149 0 240.5 -85.5t91.5 -221.5q0 -38 -7 -74q-32 -173 -175 -278q45 -38 89 -38q8 0 15 1zM201 216q25 -73 94.5 -117t157.5 -44 q91 0 171 45q-67 73 -137.5 105t-165.5 32q-64 0 -120 -21zM182 279q83 26 163 26q158 0 267 -90q33 -29 77 -73q120 99 144 229q5 25 5 59q0 111 -74.5 182.5t-194.5 71.5q-137 0 -247.5 -92.5t-135.5 -228.5q-5 -25 -5 -57q0 -4 0.5 -13t0.5 -14z" />
<glyph unicode="R" horiz-adv-x="607" d="M410 276l156 -276h-92l-187 335q121 0 173 14q112 31 135 154q4 19 4 39q0 74 -55 103q-51 27 -165 27h-104l-125 -672h-74l137 739h183q144 0 205 -38q74 -48 74 -146q0 -21 -5 -53q-18 -99 -84.5 -157t-175.5 -69z" />
<glyph unicode="S" horiz-adv-x="498" d="M60 207h79q-1 -10 -1 -27q0 -43 20 -73q33 -52 107 -52q64 0 112.5 41.5t60.5 105.5q3 15 3 29q0 50 -33 77q-33 25 -106 48q-61 20 -84.5 32.5t-41.5 33.5q-31 34 -31 94q0 18 3 37q16 87 84.5 143t157.5 56q80 0 127 -43.5t47 -117.5q0 -11 -4 -39h-77q2 16 2 22 q0 51 -29 80.5t-80 29.5q-56 0 -99 -36.5t-53 -92.5q-2 -16 -2 -23q0 -39 21 -63q21 -21 100 -46q90 -29 127 -59q48 -42 48 -117q0 -22 -4 -41q-17 -94 -92 -156.5t-171 -62.5q-90 0 -141.5 49.5t-51.5 133.5q0 24 2 37z" />
<glyph unicode="T" horiz-adv-x="426" d="M176 0l125 672h-169l12 67h412l-12 -67h-169l-125 -672h-74z" />
<glyph unicode="U" horiz-adv-x="655" d="M213 739h74l-85 -461q-9 -52 -9 -79q0 -43 14 -74q15 -32 50 -51t80 -19q46 0 88 19t69 51q45 55 63 153l85 461h74l-85 -461q-13 -71 -34 -117t-56 -83q-86 -91 -216 -91q-62 0 -110 24t-73 67q-25 44 -25 104q0 38 11 96z" />
<glyph unicode="V" horiz-adv-x="702" d="M314 0l-167 739h81l140 -647l381 647h80l-443 -739h-72z" />
<glyph unicode="W" horiz-adv-x="960" d="M221 0l-74 739h76l63 -643l296 643h70l58 -643l301 643h76l-349 -739h-95l-52 606l-274 -606h-96z" />
<glyph unicode="X" horiz-adv-x="609" d="M8 0l321 378l-170 361h87l141 -296l250 296h86l-304 -361l182 -378h-87l-150 316l-269 -316h-87z" />
<glyph unicode="Y" horiz-adv-x="592" d="M258 0l46 247l-165 492h82l133 -414l292 414h81l-349 -492l-46 -247h-74z" />
<glyph unicode="Z" horiz-adv-x="480" d="M17 0l12 67l476 605h-352l12 67h435l-12 -67l-475 -605h373l-12 -67h-457z" />
<glyph unicode="[" horiz-adv-x="351" d="M304 -50l-14 -75q-79 23 -122 87q-35 52 -35 117q0 37 9 85l56 298q24 131 116 206q63 53 136 71l-14 -75q-79 -32 -116.5 -79.5t-54.5 -136.5l-50 -271q-9 -47 -9 -82q0 -53 23 -86.5t75 -58.5z" />
<glyph unicode="\" horiz-adv-x="605" d="M464 0h-70l-173 739h70z" />
<glyph unicode="]" horiz-adv-x="351" d="M161 664l14 75q79 -23 122 -86q34 -49 34 -118q0 -37 -9 -85l-55 -297q-25 -132 -116 -207q-61 -52 -136 -71l14 75q80 33 117.5 80.5t53.5 135.5l50 272q9 46 9 81q0 53 -23 86.5t-75 58.5z" />
<glyph unicode="^" horiz-adv-x="606" d="M621 180h-81l-114 480l-294 -480h-81l347 559h85z" />
<glyph unicode="_" horiz-adv-x="500" d="M-12 -67h500l-11 -58h-500z" />
<glyph unicode="`" horiz-adv-x="378" d="M250 776l177 -110l-43 -56l-177 108z" />
<glyph unicode="a" horiz-adv-x="683" d="M721 547l-101 -547h-74l18 96q-54 -59 -107 -84t-123 -25q-111 0 -179 63.5t-68 165.5q0 32 5 56q22 123 120.5 205.5t221.5 82.5q71 0 117.5 -26t77.5 -84l18 97h74zM420 492q-88 0 -162 -63.5t-90 -153.5q-4 -19 -4 -42q0 -78 50.5 -128t130.5 -50q89 0 162 63.5 t90 156.5q4 20 4 43q0 77 -50 125.5t-131 48.5z" />
<glyph unicode="b" horiz-adv-x="682" d="M63 0l137 739h74l-53 -286q93 107 235 107q107 0 173.5 -65t66.5 -166q0 -23 -5 -55q-22 -123 -120 -205t-222 -82q-68 0 -119 28t-76 79l-17 -94h-74zM438 492q-91 0 -164.5 -63.5t-90.5 -155.5q-4 -19 -4 -41q0 -76 50.5 -126.5t129.5 -50.5q92 0 166 63t91 157 q4 20 4 45q0 77 -49.5 124.5t-132.5 47.5z" />
<glyph unicode="c" horiz-adv-x="647" d="M554 161h84q-57 -79 -111 -115q-86 -59 -189 -59q-111 0 -180.5 65.5t-69.5 168.5q0 22 5 54q22 119 122.5 202t223.5 83q93 0 157 -48t82 -131h-83q-45 111 -170 111q-91 0 -165.5 -63.5t-91.5 -155.5q-4 -19 -4 -41q0 -77 51 -127t132 -50q58 0 106 24.5t101 81.5z" />
<glyph unicode="d" horiz-adv-x="685" d="M759 739l-137 -739h-74l18 99q-54 -60 -106.5 -86t-121.5 -26q-112 0 -181.5 64.5t-69.5 166.5q0 24 5 54q22 123 121 205.5t224 82.5q131 0 196 -100l52 279h74zM419 492q-88 0 -161.5 -63.5t-89.5 -154.5q-4 -19 -4 -41q0 -77 51 -127.5t133 -50.5q88 0 163 64.5 t91 155.5q4 19 4 40q0 77 -52 127t-135 50z" />
<glyph unicode="e" horiz-adv-x="650" d="M657 249h-495q-1 -8 -1 -25q0 -72 50.5 -120.5t127.5 -48.5q62 0 121 34.5t93 90.5h77q-46 -86 -129 -139.5t-172 -53.5q-107 0 -174 66t-67 168q0 23 5 55q22 119 119.5 201.5t216.5 82.5q81 0 141.5 -40t83.5 -109q13 -41 13 -76q0 -29 -10 -86zM177 316h419 q-4 82 -52 129t-128 47q-78 0 -144 -48.5t-95 -127.5z" />
<glyph unicode="f" horiz-adv-x="314" d="M101 0l89 480h-85l12 67h85q35 192 246 192l-12 -67q-76 0 -111.5 -28t-48.5 -97h136l-12 -67h-136l-89 -480h-74z" />
<glyph unicode="g" horiz-adv-x="673" d="M711 547l-83 -449q-27 -146 -91 -215q-92 -98 -240 -98q-103 0 -164.5 51t-73.5 147h72q21 -57 41 -78q49 -52 136 -52q64 0 115 26t82 73q31 49 45 122l7 37q-87 -124 -232 -124q-106 0 -172 64.5t-66 164.5q0 23 5 55q23 124 118 206.5t215 82.5q135 0 194 -110l18 97 h74zM411 492q-86 0 -156 -61.5t-87 -153.5q-4 -21 -4 -47q0 -78 47.5 -126.5t125.5 -48.5q89 0 161 64.5t90 159.5q4 20 4 43q0 76 -50 123t-131 47z" />
<glyph unicode="h" horiz-adv-x="610" d="M63 0l137 739h74l-49 -263q73 84 189 84q125 0 174 -84q22 -40 22 -98q0 -36 -9 -84l-54 -294h-74l54 294q7 34 7 64q0 48 -20 78q-37 56 -119 56q-92 0 -152 -71q-34 -40 -50 -121l-56 -300h-74z" />
<glyph unicode="i" horiz-adv-x="200" d="M63 0l101 547h74l-101 -547h-74zM177 613l23 126h74l-23 -126h-74z" />
<glyph unicode="j" horiz-adv-x="203" d="M241 547l-94 -509q-15 -82 -39 -124t-72 -72q-51 -31 -117 -34l14 71q63 4 93.5 38.5t46.5 120.5l94 509h74zM180 613l23 126h74l-23 -126h-74z" />
<glyph unicode="k" horiz-adv-x="502" d="M63 0l137 739h74l-97 -524l316 332h91l-264 -275l177 -272h-92l-141 219l-106 -106l-21 -113h-74z" />
<glyph unicode="l" horiz-adv-x="200" d="M63 0l137 739h74l-137 -739h-74z" />
<glyph unicode="m" horiz-adv-x="938" d="M63 0l101 547h74l-11 -63q40 41 78 58.5t90 17.5q62 0 99.5 -25t59.5 -80q86 105 209 105q116 0 160 -81q20 -37 20 -84q0 -28 -8 -70l-60 -325h-74l59 317q6 33 6 58q0 41 -16 68q-28 49 -103 49q-84 0 -139 -66q-30 -37 -43 -109l-59 -317h-74l59 319q6 31 6 56 q0 41 -20 70q-33 47 -102 47t-116.5 -45.5t-62.5 -127.5l-59 -319h-74z" />
<glyph unicode="n" horiz-adv-x="610" d="M63 0l101 547h74l-13 -71q84 84 192 84q119 0 170 -85q23 -40 23 -95q0 -40 -10 -93l-53 -287h-74l53 287q8 46 8 74q0 44 -19 75q-36 56 -120 56q-95 0 -154 -70q-33 -39 -48 -121l-56 -301h-74z" />
<glyph unicode="o" horiz-adv-x="655" d="M436 560q105 0 169 -64t64 -165q0 -29 -6 -59q-23 -123 -116.5 -204t-214.5 -81q-110 0 -177.5 64t-67.5 166q0 27 6 56q23 125 120 206t223 81zM417 492q-90 0 -161.5 -63t-88.5 -157q-4 -20 -4 -44q0 -77 49 -125t130 -48q90 0 159.5 61t86.5 155q5 28 5 48 q0 78 -48 125.5t-128 47.5z" />
<glyph unicode="p" horiz-adv-x="682" d="M164 547h74l-17 -94q90 107 235 107q107 0 173.5 -64.5t66.5 -166.5q0 -32 -5 -56q-23 -121 -121.5 -203.5t-221.5 -82.5q-140 0 -194 107l-53 -286h-74zM437 492q-90 0 -163.5 -63.5t-90.5 -155.5q-4 -20 -4 -42q0 -77 50 -126.5t130 -49.5q92 0 165.5 62t90.5 154 q5 27 5 46q0 78 -50 126.5t-133 48.5z" />
<glyph unicode="q" horiz-adv-x="682" d="M720 547l-137 -739h-74l53 286q-93 -107 -232 -107q-108 0 -175.5 65.5t-67.5 166.5q0 16 6 54q22 122 120.5 204.5t220.5 82.5q145 0 195 -107l17 94h74zM422 492q-91 0 -164.5 -63t-90.5 -157q-4 -20 -4 -43q0 -77 49.5 -125.5t130.5 -48.5q92 0 166.5 63t91.5 155 q4 20 4 43q0 78 -50.5 127t-132.5 49z" />
<glyph unicode="r" horiz-adv-x="301" d="M63 0l101 547h74l-14 -78q30 45 71 66.5t101 24.5l-14 -73q-158 -15 -186 -168l-59 -319h-74z" />
<glyph unicode="s" horiz-adv-x="388" d="M48 161h73q-2 -16 -2 -22q0 -41 22 -62.5t63 -21.5q40 0 71 27t39 68q2 8 2 22q0 26 -19 43.5t-70 39.5q-54 25 -65.5 31.5t-25.5 21.5q-25 28 -25 70q0 18 2 28q12 67 64 110.5t120 43.5q59 0 93.5 -33t34.5 -88q0 -9 -2 -27h-75q1 5 1 15q0 65 -66 65q-33 0 -60 -23 t-33 -56q-2 -10 -2 -15q0 -36 39 -58q49 -23 94 -43q72 -32 72 -106q0 -16 -3 -34q-14 -75 -69 -122.5t-129 -47.5q-69 0 -108.5 36.5t-39.5 99.5q0 12 4 38z" />
<glyph unicode="t" horiz-adv-x="339" d="M130 0l89 480h-118l12 67h118l36 192h74l-36 -192h123l-12 -67h-123l-89 -480h-74z" />
<glyph unicode="u" horiz-adv-x="608" d="M646 547l-101 -547h-74l16 85q-72 -98 -194 -98q-131 0 -175 92q-18 34 -18 84q0 32 10 89l54 295h74l-54 -295q-8 -42 -8 -71q0 -36 11 -61q29 -65 123 -65q91 0 151 68q42 50 59 143l52 281h74z" />
<glyph unicode="v" d="M238 0l-129 547h75l107 -460l281 460h75l-331 -547h-78z" />
<glyph unicode="w" horiz-adv-x="831" d="M216 0l-108 547h74l89 -458l202 391h61l56 -391l263 458h72l-313 -547h-79l-52 363l-185 -363h-80z" />
<glyph unicode="x" horiz-adv-x="480" d="M8 0l242 279l-141 268h84l109 -211l186 211h85l-240 -268l139 -279h-85l-106 219l-189 -219h-84z" />
<glyph unicode="y" horiz-adv-x="536" d="M96 -192l128 210l-114 529h81l93 -436l265 436h79l-453 -739h-79z" />
<glyph unicode="z" horiz-adv-x="425" d="M10 0l12 67l379 413h-292l12 67h376l-11 -63l-377 -417h318l-12 -67h-405z" />
<glyph unicode="{" horiz-adv-x="351" d="M182 306l17 -6q29 -12 41.5 -28.5t12.5 -45.5q0 -16 -5 -44l-32 -170q-3 -16 -3 -27q0 -21 13 -30.5t44 -12.5l11 -1l-12 -67q-50 1 -69.5 5t-35.5 16q-29 21 -29 71q0 24 4 47l32 170q4 19 4 35q0 25 -14.5 36t-52.5 18l13 69q50 8 69 25.5t27 63.5l31 170q16 88 68 118 q31 19 113 21l-12 -67q-46 -4 -57 -10q-25 -13 -35 -61l-31 -170q-10 -52 -30 -77.5t-63 -40.5q-12 -4 -19 -7z" />
<glyph unicode="|" horiz-adv-x="672" d="M505 739l-137 -739h-64l137 739h64z" />
<glyph unicode="}" horiz-adv-x="348" d="M283 306l-17 7q-29 12 -41.5 28.5t-12.5 45.5q0 16 5 44l31 170q0 1 1.5 10t1.5 13q0 22 -7 32q-7 11 -50 15l-10 1l12 67q59 -2 82.5 -9t38.5 -28q13 -20 13 -55q0 -19 -5 -47l-31 -170q-4 -19 -4 -36q0 -24 14 -35.5t50 -17.5l-14 -69q-49 -8 -66.5 -25t-25.5 -64 l-32 -170q-15 -82 -56 -111q-22 -16 -46.5 -21.5t-77.5 -6.5l12 67l11 1q48 4 60 20q13 16 20 50l32 170q10 52 30 77t63 41z" />
<glyph unicode="~" horiz-adv-x="606" d="M583 390l36 -47q-35 -51 -79 -81.5t-82 -30.5q-33 0 -88 26l-51 22q-47 21 -69 21q-40 0 -73 -35q-12 -13 -45 -55l-33 47q48 65 85.5 92.5t79.5 27.5q32 0 73 -19l60 -27q52 -23 76 -23q46 0 110 82z" />
<glyph unicode="&#xa1;" horiz-adv-x="295" d="M75 -192l101 544h74l-101 -544h-74zM189 421l23 126h74l-23 -126h-74z" />
<glyph unicode="&#xa2;" d="M270 62l17 89q-79 7 -127 58.5t-48 128.5q0 24 4 44q17 94 88.5 158t168.5 74l17 93h66l-17 -93q63 -9 104 -49t52 -102h-83q-32 84 -128 84q-71 0 -126 -47t-68 -117q-3 -17 -3 -32q0 -58 37.5 -96t97.5 -38q77 0 154 73h81q-31 -55 -86.5 -93t-117.5 -46l-17 -89h-66z " />
<glyph unicode="&#xa3;" d="M59 0l12 67h139q51 46 64 116q4 26 4 37q0 31 -15.5 58t-54.5 69h-126l13 67h75q-8 38 -8 58t4 40q20 105 98 172.5t181 67.5q95 0 152.5 -52.5t57.5 -139.5q0 -3 -0.5 -9.5t-0.5 -9.5h-69q-2 68 -42 106t-109 38q-72 0 -126 -48t-68 -124q-4 -19 -4 -37q0 -26 14 -62 h284l-13 -67h-215q46 -63 46 -127q0 -12 -4 -36q-9 -51 -51 -117h57q91 0 139 39q53 45 66 113q3 17 3 38v11h72q1 -9 1 -23t-3 -32q-10 -52 -40 -97t-73 -73q-67 -43 -175 -43h-285z" />
<glyph unicode="&#xa4;" d="M121 494l65 54l35 -42q82 47 157 47q86 0 142 -46l51 42l44 -55l-49 -42q23 -46 23 -98q0 -30 -5 -54q-16 -90 -75 -147l35 -42l-64 -53l-33 42q-49 -28 -84 -39t-78 -11t-74 11t-66 39l-50 -42l-43 54l48 41q-23 43 -23 96q0 30 5 54q16 84 75 149zM365 483 q-76 0 -137 -52t-75 -129q-3 -18 -3 -36q0 -64 41.5 -104t110.5 -40q76 0 136.5 51.5t74.5 128.5q4 26 4 39q0 65 -41 103.5t-111 38.5z" />
<glyph unicode="&#xa5;" d="M260 0l44 237h-210l12 67h183l-32 92h-141l13 67h105l-97 276h76l145 -412l292 412h76l-197 -276h103l-13 -67h-139l-65 -92h180l-12 -67h-206l-44 -237h-73z" />
<glyph unicode="&#xa6;" horiz-adv-x="672" d="M505 739l-55 -295h-64l55 295h64zM423 295l-55 -295h-64l55 295h64z" />
<glyph unicode="&#xa7;" horiz-adv-x="615" d="M595 606h-71q-1 79 -90 79q-46 0 -79.5 -26.5t-41.5 -67.5q-2 -12 -2 -17q0 -44 45 -69l144 -74q85 -45 85 -116q0 -17 -2 -26q-15 -85 -103 -143q31 -40 31 -81q0 -13 -3 -28q-14 -77 -77 -127.5t-144 -50.5q-78 0 -125 46.5t-47 121.5q0 17 3 37h68q-1 -7 -1 -21 q0 -54 30.5 -85.5t83.5 -31.5q51 0 91.5 31.5t48.5 77.5q2 10 2 15q0 45 -77 87l-130 70q-47 26 -67 49.5t-20 55.5q0 12 3 27q16 91 114 152q-23 32 -23 67q0 14 3 31q13 70 70.5 116.5t131.5 46.5q68 0 109 -36t41 -94q0 -10 -1 -16zM468 365l-172 89q-30 -18 -50.5 -46 t-25.5 -58q-1 -5 -1 -14q0 -36 42 -58l180 -96q28 18 47.5 44.5t24.5 53.5q2 12 2 17q0 45 -47 68z" />
<glyph unicode="&#xa8;" horiz-adv-x="369" d="M213 749h74l-24 -126h-74zM360 749h74l-24 -126h-74z" />
<glyph unicode="&#xa9;" horiz-adv-x="747" d="M549 261h75q-40 -53 -96.5 -83t-118.5 -30q-79 0 -130 52t-51 131q0 22 4 41q17 93 93 157.5t168 64.5q130 0 174 -117h-74q-39 61 -109 61q-66 0 -122 -48.5t-69 -117.5q-3 -17 -3 -31q0 -58 37 -97.5t94 -39.5q69 0 128 57zM517 752q136 0 224.5 -89.5t88.5 -223.5 q0 -28 -7 -70q-29 -158 -161.5 -270t-290.5 -112q-139 0 -228.5 89t-89.5 223q0 34 6 70q30 161 162.5 272t295.5 111zM499 700q-132 0 -245 -97.5t-139 -233.5q-5 -26 -5 -61q0 -116 76 -192.5t194 -76.5q135 0 248 96.5t139 233.5q6 33 6 63q0 116 -76.5 192t-197.5 76z " />
<glyph unicode="&#xaa;" horiz-adv-x="369" d="M470 739l-54 -291h-48l8 45q-52 -52 -112 -52q-54 0 -89.5 36t-35.5 90q0 18 2 27q11 62 64 106.5t116 44.5q31 0 57 -14.5t36 -36.5l8 45h48zM312 696q-39 0 -74.5 -31t-43.5 -71q-2 -12 -2 -18q0 -36 24 -61t59 -25q39 0 74 30.5t43 71.5q2 14 2 20q0 36 -23 60t-59 24 zM100 370h308l-10 -51h-308z" />
<glyph unicode="&#xab;" horiz-adv-x="425" d="M171 99l-75 201l149 199l54 -32l-125 -167l62 -168zM344 99l-77 201l151 199l54 -32l-125 -167l62 -168z" />
<glyph unicode="&#xac;" horiz-adv-x="606" d="M132 436h504l-54 -288h-72l40 215h-432z" />
<glyph unicode="&#xad;" horiz-adv-x="332" d="M86 296h271l-12 -63h-271z" />
<glyph unicode="&#xae;" horiz-adv-x="747" d="M559 157h-76l-107 202l-38 -202h-61l79 428h132q79 0 109 -36q23 -28 23 -72q0 -14 -3 -29q-21 -114 -149 -131zM377 365h44q118 0 133 83q2 10 2 16q0 29 -22 46t-60 17h-67zM517 752q136 0 224.5 -89.5t88.5 -223.5q0 -28 -7 -70q-29 -158 -161.5 -270t-290.5 -112 q-139 0 -228.5 89t-89.5 223q0 34 6 70q30 161 162.5 272t295.5 111zM499 700q-132 0 -245 -97.5t-139 -233.5q-5 -26 -5 -61q0 -116 76 -192.5t194 -76.5q135 0 248 96.5t139 233.5q6 33 6 63q0 116 -76.5 192t-197.5 76z" />
<glyph unicode="&#xaf;" horiz-adv-x="485" d="M205 707h337l-12 -64h-337z" />
<glyph unicode="&#xb0;" horiz-adv-x="400" d="M331 686q54 0 87.5 -34t33.5 -88q0 -14 -3 -31q-12 -64 -64 -108.5t-115 -44.5q-55 0 -89.5 35t-34.5 89q0 15 3 30q12 64 64.5 108t117.5 44zM317 629q-39 0 -71.5 -28.5t-40.5 -67.5q-2 -12 -2 -18q0 -33 22 -55.5t56 -22.5q39 0 71.5 28t39.5 68q2 12 2 19 q0 34 -21.5 55.5t-55.5 21.5z" />
<glyph unicode="&#xb1;" horiz-adv-x="606" d="M333 369l40 216h77l-40 -216h213l-13 -74h-213l-32 -171h-77l32 171h-214l13 74h214zM569 74l-14 -74h-504l14 74h504z" />
<glyph unicode="&#xb2;" horiz-adv-x="332" d="M65 288l10 51l191 150q43 33 63 52q37 36 43 67q1 5 1 14q0 30 -22 50t-55 20q-29 0 -55.5 -16t-40.5 -42q-10 -18 -16 -51h-60l2 12q14 68 64 110t119 42q55 0 90.5 -33t35.5 -83q0 -13 -3 -25q-7 -36 -32 -68t-80 -74l-155 -121h217l-11 -55h-306z" />
<glyph unicode="&#xb3;" horiz-adv-x="332" d="M218 615h-61q12 60 52 96t96 36q45 0 74 -27.5t29 -69.5q0 -6 -2 -22q-8 -45 -56 -82q51 -36 51 -92q0 -14 -3 -27q-11 -60 -64.5 -103.5t-115.5 -43.5q-41 0 -73.5 20.5t-45.5 54.5q-8 19 -8 43q0 17 3 41h61q-2 -13 -2 -32q0 -17 9 -34q22 -38 65 -38q37 0 70 27t40 63 q1 5 1 16q0 26 -15.5 46t-40.5 26q-15 4 -58 4l10 54q10 -1 20 -1q38 0 62.5 16t29.5 45q1 4 1 12q0 22 -14.5 35.5t-38.5 13.5q-28 0 -47.5 -18.5t-26.5 -49.5z" />
<glyph unicode="&#xb4;" horiz-adv-x="375" d="M197 666l215 116l23 -58l-214 -114z" />
<glyph unicode="&#xb5;" horiz-adv-x="608" d="M646 547l-101 -547h-74l16 85q-67 -98 -182 -98q-112 0 -152 98l-52 -277h-74l137 739h74l-52 -281q-9 -51 -9 -81q0 -48 32 -84q41 -47 107 -47q88 0 147 69q40 49 57 143l52 281h74z" />
<glyph unicode="&#xb6;" horiz-adv-x="564" d="M202 -133l91 488q-75 7 -116.5 48t-41.5 106q0 21 4 40q9 50 39 92t76 67q54 31 143 31h231l-162 -872h-75l150 805h-114l-150 -805h-75z" />
<glyph unicode="&#xb7;" horiz-adv-x="277" d="M143 229l24 126h74l-24 -126h-74z" />
<glyph unicode="&#xb8;" horiz-adv-x="324" d="M124 0h36l-28 -47q21 8 35 8q29 0 46 -17t17 -45q0 -6 -2 -18q-8 -41 -37 -67.5t-68 -26.5q-35 0 -54.5 19t-20.5 54l45 5q3 -35 38 -35q20 0 34.5 13t18.5 33q1 4 1 13q0 18 -10 28.5t-27 10.5q-24 0 -48 -24l-26 17z" />
<glyph unicode="&#xb9;" horiz-adv-x="332" d="M226 288l74 396h-75l10 55h135l-84 -451h-60z" />
<glyph unicode="&#xba;" horiz-adv-x="369" d="M324 745q54 0 90 -36.5t36 -88.5q0 -12 -3 -26q-11 -62 -64.5 -107t-116.5 -45q-55 0 -91 35.5t-36 88.5q0 14 3 27q12 63 65 107.5t117 44.5zM312 696q-41 0 -75.5 -30t-41.5 -72q-2 -14 -2 -20q0 -36 23 -59.5t60 -23.5q41 0 75.5 29.5t42.5 72.5q2 14 2 20 q0 36 -23.5 59.5t-60.5 23.5zM101 370h305l-10 -51h-305z" />
<glyph unicode="&#xbb;" horiz-adv-x="425" d="M290 99l-53 33l126 168l-63 167l64 32l77 -199zM117 99l-53 33l126 168l-63 167l64 32l79 -199z" />
<glyph unicode="&#xbc;" horiz-adv-x="831" d="M701 0l15 79h-231l9 50l286 322h65l-59 -317h42l-10 -55h-42l-15 -79h-60zM726 134l42 225l-198 -225h156zM211 0l478 739h55l-479 -739h-54zM229 288l74 396h-75l10 55h135l-84 -451h-60z" />
<glyph unicode="&#xbd;" horiz-adv-x="831" d="M206 0l478 739h55l-479 -739h-54zM224 288l74 396h-75l10 55h135l-84 -451h-60zM506 0l9 51l191 150q49 38 64 52q36 35 42 67q2 10 2 14q0 30 -22 50t-55 20q-29 0 -56 -16t-41 -42q-9 -16 -15 -51h-60l2 12q14 68 64 110t119 42q55 0 90 -33t35 -83q0 -17 -2 -25 q-7 -36 -32 -68t-80 -74l-156 -121h217l-10 -55h-306z" />
<glyph unicode="&#xbe;" horiz-adv-x="831" d="M701 0l15 79h-231l9 50l286 322h65l-59 -317h42l-10 -55h-42l-15 -79h-60zM726 134l42 225l-198 -225h156zM239 0l478 739h55l-479 -739h-54zM218 615h-61q12 60 52 96t96 36q45 0 74 -27.5t29 -69.5q0 -6 -2 -22q-8 -45 -56 -82q51 -36 51 -92q0 -14 -3 -27 q-11 -60 -64.5 -103.5t-115.5 -43.5q-41 0 -73.5 20.5t-45.5 54.5q-9 21 -9 44q0 19 4 40h61q-2 -13 -2 -32q0 -17 9 -34q22 -38 65 -38q37 0 70 27t40 63q1 5 1 16q0 26 -15.5 46t-40.5 26q-15 4 -58 4l10 54q10 -1 20 -1q38 0 62.5 16t29.5 45q1 4 1 12q0 22 -14.5 35.5 t-38.5 13.5q-28 0 -47.5 -18.5t-26.5 -49.5z" />
<glyph unicode="&#xbf;" horiz-adv-x="591" d="M431 547l-23 -126h-74l23 126h74zM463 39h70q-18 -89 -66 -146q-86 -98 -213 -98q-86 0 -138 48t-52 126q0 23 4 43q9 48 36.5 86.5t85.5 83.5q65 49 95 87.5t40 84.5h70l-3 -15q-9 -50 -53 -107q-25 -32 -87 -82q-60 -48 -81.5 -75.5t-28.5 -64.5q-3 -15 -3 -30 q0 -53 35 -85.5t93 -32.5q46 0 88 21.5t68 59.5q23 33 40 96z" />
<glyph unicode="&#xc0;" horiz-adv-x="740" d="M11 0l454 739h83l181 -739h-81l-61 249h-344l-154 -249h-78zM284 316h287l-80 339zM432 958l177 -110l-43 -56l-177 108z" />
<glyph unicode="&#xc1;" horiz-adv-x="740" d="M11 0l454 739h83l181 -739h-81l-61 249h-344l-154 -249h-78zM284 316h287l-80 339zM447 848l215 116l23 -58l-214 -114z" />
<glyph unicode="&#xc2;" horiz-adv-x="740" d="M11 0l454 739h83l181 -739h-81l-61 249h-344l-154 -249h-78zM284 316h287l-80 339zM342 805l169 126h66l119 -126h-89l-72 74l-102 -74h-91z" />
<glyph unicode="&#xc3;" horiz-adv-x="740" d="M11 0l454 739h83l181 -739h-81l-61 249h-344l-154 -249h-78zM284 316h287l-80 339zM654 910l24 -46q-16 -20 -45.5 -34.5t-54.5 -14.5q-19 0 -62 22q-23 10 -38 10q-23 0 -58 -26l-8 -6l-24 46q46 49 102 49q22 0 56 -17q32 -14 45 -14q28 0 63 31z" />
<glyph unicode="&#xc4;" horiz-adv-x="740" d="M11 0l454 739h83l181 -739h-81l-61 249h-344l-154 -249h-78zM284 316h287l-80 339zM433 931h74l-24 -126h-74zM580 931h74l-24 -126h-74z" />
<glyph unicode="&#xc5;" horiz-adv-x="740" d="M11 0l454 739h83l181 -739h-81l-61 249h-344l-154 -249h-78zM284 316h287l-80 339zM552 976q33 0 54 -21.5t21 -53.5q0 -11 -1 -17q-7 -38 -39 -65t-70 -27q-33 0 -55 21.5t-22 53.5q0 4 2 16q8 39 39.5 66t70.5 27zM542 935q-20 0 -37.5 -15t-21.5 -37q-1 -3 -1 -9 q0 -18 11.5 -29.5t30.5 -11.5q21 0 39 15t22 35q1 3 1 10q0 18 -12.5 30t-31.5 12z" />
<glyph unicode="&#xc6;" horiz-adv-x="992" d="M11 0l648 739h414l-12 -67h-319l-50 -265h308l-12 -67h-308l-51 -273h319l-12 -67h-393l46 250h-271l-219 -250h-88zM378 317h224l60 327z" />
<glyph unicode="&#xc7;" horiz-adv-x="813" d="M427 -13l-35 -55q21 7 36 7q30 0 46.5 -17t16.5 -47q0 -6 -2 -20q-7 -42 -37.5 -68.5t-71.5 -26.5q-72 0 -80 74l49 7q6 -34 38 -34q21 0 35.5 12.5t18.5 33.5q1 4 1 11q0 17 -10.5 27t-27.5 10q-23 0 -48 -22l-27 18l59 91q-63 10 -100.5 25t-73.5 44q-109 89 -109 235 q0 39 7 75q31 166 160 275.5t294 109.5q115 0 196 -55t106 -150h-83q-26 60 -68 90q-65 47 -160 47q-133 0 -238.5 -90t-130.5 -224q-6 -30 -6 -58q0 -110 73 -183.5t186 -73.5q107 0 199 64q39 27 84 75h82q-146 -207 -379 -207z" />
<glyph unicode="&#xc8;" horiz-adv-x="536" d="M76 0l137 739h404l-12 -67h-330l-50 -265h319l-12 -67h-319l-51 -273h330l-12 -67h-404zM340 958l177 -110l-43 -56l-177 108z" />
<glyph unicode="&#xc9;" horiz-adv-x="536" d="M76 0l137 739h404l-12 -67h-330l-50 -265h319l-12 -67h-319l-51 -273h330l-12 -67h-404zM355 848l215 116l23 -58l-214 -114z" />
<glyph unicode="&#xca;" horiz-adv-x="536" d="M76 0l137 739h404l-12 -67h-330l-50 -265h319l-12 -67h-319l-51 -273h330l-12 -67h-404zM250 805l169 126h66l119 -126h-89l-72 74l-102 -74h-91z" />
<glyph unicode="&#xcb;" horiz-adv-x="536" d="M76 0l137 739h404l-12 -67h-330l-50 -265h319l-12 -67h-319l-51 -273h330l-12 -67h-404zM341 931h74l-24 -126h-74zM488 931h74l-24 -126h-74z" />
<glyph unicode="&#xcc;" horiz-adv-x="226" d="M76 0l137 739h74l-137 -739h-74zM208 958l177 -110l-43 -56l-177 108z" />
<glyph unicode="&#xcd;" horiz-adv-x="226" d="M76 0l137 739h74l-137 -739h-74zM156 848l215 116l23 -58l-214 -114z" />
<glyph unicode="&#xce;" horiz-adv-x="226" d="M76 0l137 739h74l-137 -739h-74zM85 805l169 126h66l119 -126h-89l-72 74l-102 -74h-91z" />
<glyph unicode="&#xcf;" horiz-adv-x="226" d="M77 0l137 739h74l-137 -739h-74zM176 931h74l-24 -126h-74zM323 931h74l-24 -126h-74z" />
<glyph unicode="&#xd0;" horiz-adv-x="790" d="M186 347h-96l13 67h96l60 325h174q104 0 167.5 -14.5t110.5 -48.5q111 -79 111 -227q0 -36 -8 -82q-20 -106 -80.5 -187t-156.5 -129q-102 -51 -256 -51h-199zM260 347l-52 -280h103q102 0 168 16.5t118 54.5q117 87 143 232q6 33 6 63q0 133 -100 195q-68 44 -222 44 h-103l-48 -258h205l-13 -67h-205z" />
<glyph unicode="&#xd1;" horiz-adv-x="740" d="M76 0l137 739h100l300 -613l114 613h74l-137 -739h-74l-320 650l-120 -650h-74zM658 910l24 -46q-16 -20 -45.5 -34.5t-54.5 -14.5q-19 0 -62 22q-23 10 -38 10q-23 0 -58 -26l-8 -6l-24 46q46 49 102 49q22 0 56 -17q32 -14 45 -14q28 0 63 31z" />
<glyph unicode="&#xd2;" horiz-adv-x="869" d="M579 752q139 0 230 -90.5t91 -224.5q0 -28 -7 -68q-19 -103 -87.5 -191t-168 -139.5t-204.5 -51.5q-142 0 -234.5 90t-92.5 225q0 33 6 67q19 105 88 193t170 139t209 51zM558 684q-127 0 -237 -93.5t-134 -221.5q-5 -24 -5 -56q0 -110 74 -184t189 -74q129 0 239 92.5 t134 220.5q6 30 6 58q0 111 -74.5 184.5t-191.5 73.5zM496 958l177 -110l-43 -56l-177 108z" />
<glyph unicode="&#xd3;" horiz-adv-x="869" d="M579 752q139 0 230 -90.5t91 -224.5q0 -28 -7 -68q-19 -103 -87.5 -191t-168 -139.5t-204.5 -51.5q-142 0 -234.5 90t-92.5 225q0 33 6 67q19 105 88 193t170 139t209 51zM558 684q-127 0 -237 -93.5t-134 -221.5q-5 -24 -5 -56q0 -110 74 -184t189 -74q129 0 239 92.5 t134 220.5q6 30 6 58q0 111 -74.5 184.5t-191.5 73.5zM511 848l215 116l23 -58l-214 -114z" />
<glyph unicode="&#xd4;" horiz-adv-x="869" d="M579 752q139 0 230 -90.5t91 -224.5q0 -28 -7 -68q-19 -103 -87.5 -191t-168 -139.5t-204.5 -51.5q-142 0 -234.5 90t-92.5 225q0 33 6 67q19 105 88 193t170 139t209 51zM558 684q-127 0 -237 -93.5t-134 -221.5q-5 -24 -5 -56q0 -110 74 -184t189 -74q129 0 239 92.5 t134 220.5q6 30 6 58q0 111 -74.5 184.5t-191.5 73.5zM406 805l169 126h66l119 -126h-89l-72 74l-102 -74h-91z" />
<glyph unicode="&#xd5;" horiz-adv-x="869" d="M579 752q139 0 230 -90.5t91 -224.5q0 -28 -7 -68q-19 -103 -87.5 -191t-168 -139.5t-204.5 -51.5q-142 0 -234.5 90t-92.5 225q0 33 6 67q19 105 88 193t170 139t209 51zM558 684q-127 0 -237 -93.5t-134 -221.5q-5 -24 -5 -56q0 -110 74 -184t189 -74q129 0 239 92.5 t134 220.5q6 30 6 58q0 111 -74.5 184.5t-191.5 73.5zM726 910l24 -46q-16 -20 -45.5 -34.5t-54.5 -14.5q-19 0 -62 22q-23 10 -38 10q-23 0 -58 -26l-8 -6l-24 46q46 49 102 49q22 0 56 -17q32 -14 45 -14q28 0 63 31z" />
<glyph unicode="&#xd6;" horiz-adv-x="869" d="M579 752q139 0 230 -90.5t91 -224.5q0 -28 -7 -68q-19 -103 -87.5 -191t-168 -139.5t-204.5 -51.5q-142 0 -234.5 90t-92.5 225q0 33 6 67q19 105 88 193t170 139t209 51zM558 684q-127 0 -237 -93.5t-134 -221.5q-5 -24 -5 -56q0 -110 74 -184t189 -74q129 0 239 92.5 t134 220.5q6 30 6 58q0 111 -74.5 184.5t-191.5 73.5zM497 931h74l-24 -126h-74zM644 931h74l-24 -126h-74z" />
<glyph unicode="&#xd7;" horiz-adv-x="606" d="M410 299l163 -200l-61 -51l-163 200l-237 -200l-43 51l237 200l-162 201l61 51l163 -200l237 200l43 -51z" />
<glyph unicode="&#xd8;" horiz-adv-x="868" d="M75 -42l116 124q-85 83 -85 215q0 38 7 73q30 161 162 271.5t295 110.5q125 0 195 -56l117 125l46 -42l-114 -123q86 -85 86 -210q0 -38 -7 -74q-30 -161 -163 -273t-294 -112q-114 0 -195 55l-117 -125zM245 138l469 503q-63 43 -157 43q-131 0 -238 -92t-132 -226 q-6 -32 -6 -60q0 -95 64 -168zM761 600l-469 -503q71 -42 154 -42q131 0 238.5 91t132.5 223q7 39 7 64q0 92 -63 167z" />
<glyph unicode="&#xd9;" horiz-adv-x="655" d="M213 739h74l-85 -461q-9 -52 -9 -79q0 -43 14 -74q15 -32 50 -51t80 -19q46 0 88 19t69 51q45 55 63 153l85 461h74l-85 -461q-13 -71 -34 -117t-56 -83q-86 -91 -216 -91q-62 0 -110 24t-73 67q-25 44 -25 104q0 38 11 96zM389 958l177 -110l-43 -56l-177 108z" />
<glyph unicode="&#xda;" horiz-adv-x="655" d="M213 739h74l-85 -461q-9 -52 -9 -79q0 -43 14 -74q15 -32 50 -51t80 -19q46 0 88 19t69 51q45 55 63 153l85 461h74l-85 -461q-13 -71 -34 -117t-56 -83q-86 -91 -216 -91q-62 0 -110 24t-73 67q-25 44 -25 104q0 38 11 96zM404 848l215 116l23 -58l-214 -114z" />
<glyph unicode="&#xdb;" horiz-adv-x="655" d="M213 739h74l-85 -461q-9 -52 -9 -79q0 -43 14 -74q15 -32 50 -51t80 -19q46 0 88 19t69 51q45 55 63 153l85 461h74l-85 -461q-13 -71 -34 -117t-56 -83q-86 -91 -216 -91q-62 0 -110 24t-73 67q-25 44 -25 104q0 38 11 96zM299 805l169 126h66l119 -126h-89l-72 74 l-102 -74h-91z" />
<glyph unicode="&#xdc;" horiz-adv-x="655" d="M213 739h74l-85 -461q-9 -52 -9 -79q0 -43 14 -74q15 -32 50 -51t80 -19q46 0 88 19t69 51q45 55 63 153l85 461h74l-85 -461q-13 -71 -34 -117t-56 -83q-86 -91 -216 -91q-62 0 -110 24t-73 67q-25 44 -25 104q0 38 11 96zM390 931h74l-24 -126h-74zM537 931h74 l-24 -126h-74z" />
<glyph unicode="&#xdd;" horiz-adv-x="592" d="M258 0l46 247l-165 492h82l133 -414l292 414h81l-349 -492l-46 -247h-74zM373 848l215 116l23 -58l-214 -114z" />
<glyph unicode="&#xde;" horiz-adv-x="592" d="M76 0l137 739h67l-25 -133h137q133 0 190 -39q59 -39 59 -130q0 -31 -5 -55q-22 -115 -106 -170q-71 -46 -207 -46h-142l-31 -166h-74zM193 233h137q100 0 147 25q66 32 84 125q4 19 4 40q0 79 -61 100q-45 16 -149 16h-105z" />
<glyph unicode="&#xdf;" d="M59 0l89 481q23 122 70 183q31 41 80 64.5t104 23.5q80 0 128.5 -46.5t48.5 -120.5q0 -22 -4 -41q-19 -104 -114 -155q104 -35 104 -144q0 -25 -4 -46q-17 -92 -86.5 -152t-157.5 -60q-131 0 -164 122l-20 -109h-74zM171 203h51q-3 -17 -3 -31q0 -53 29.5 -85t78.5 -32 q56 0 102 41t57 101q2 11 2 31q0 55 -40 85t-115 30q-15 0 -46 -2l13 67h13q75 0 125.5 37.5t62.5 102.5q2 10 2 28q0 48 -30.5 78t-81.5 30q-35 0 -68 -17t-52 -46q-32 -47 -49 -140z" />
<glyph unicode="&#xe0;" horiz-adv-x="683" d="M721 547l-101 -547h-74l18 96q-54 -59 -107 -84t-123 -25q-111 0 -179 63.5t-68 165.5q0 32 5 56q22 123 120.5 205.5t221.5 82.5q71 0 117.5 -26t77.5 -84l18 97h74zM420 492q-88 0 -162 -63.5t-90 -153.5q-4 -19 -4 -42q0 -78 50.5 -128t130.5 -50q89 0 162 63.5 t90 156.5q4 20 4 43q0 77 -50 125.5t-131 48.5zM379 776l177 -110l-43 -56l-177 108z" />
<glyph unicode="&#xe1;" horiz-adv-x="683" d="M721 547l-101 -547h-74l18 96q-54 -59 -107 -84t-123 -25q-111 0 -179 63.5t-68 165.5q0 32 5 56q22 123 120.5 205.5t221.5 82.5q71 0 117.5 -26t77.5 -84l18 97h74zM420 492q-88 0 -162 -63.5t-90 -153.5q-4 -19 -4 -42q0 -78 50.5 -128t130.5 -50q89 0 162 63.5 t90 156.5q4 20 4 43q0 77 -50 125.5t-131 48.5zM394 666l215 116l23 -58l-214 -114z" />
<glyph unicode="&#xe2;" horiz-adv-x="683" d="M721 547l-101 -547h-74l18 96q-54 -59 -107 -84t-123 -25q-111 0 -179 63.5t-68 165.5q0 32 5 56q22 123 120.5 205.5t221.5 82.5q71 0 117.5 -26t77.5 -84l18 97h74zM420 492q-88 0 -162 -63.5t-90 -153.5q-4 -19 -4 -42q0 -78 50.5 -128t130.5 -50q89 0 162 63.5 t90 156.5q4 20 4 43q0 77 -50 125.5t-131 48.5zM289 623l169 126h66l119 -126h-89l-72 74l-102 -74h-91z" />
<glyph unicode="&#xe3;" horiz-adv-x="683" d="M721 547l-101 -547h-74l18 96q-54 -59 -107 -84t-123 -25q-111 0 -179 63.5t-68 165.5q0 32 5 56q22 123 120.5 205.5t221.5 82.5q71 0 117.5 -26t77.5 -84l18 97h74zM420 492q-88 0 -162 -63.5t-90 -153.5q-4 -19 -4 -42q0 -78 50.5 -128t130.5 -50q89 0 162 63.5 t90 156.5q4 20 4 43q0 77 -50 125.5t-131 48.5zM598 728l24 -46q-16 -20 -45.5 -34.5t-54.5 -14.5q-19 0 -62 22q-23 10 -38 10q-23 0 -58 -26l-8 -6l-24 46q46 49 102 49q22 0 56 -17q32 -14 45 -14q28 0 63 31z" />
<glyph unicode="&#xe4;" horiz-adv-x="683" d="M721 547l-101 -547h-74l18 96q-54 -59 -107 -84t-123 -25q-111 0 -179 63.5t-68 165.5q0 32 5 56q22 123 120.5 205.5t221.5 82.5q71 0 117.5 -26t77.5 -84l18 97h74zM420 492q-88 0 -162 -63.5t-90 -153.5q-4 -19 -4 -42q0 -78 50.5 -128t130.5 -50q89 0 162 63.5 t90 156.5q4 20 4 43q0 77 -50 125.5t-131 48.5zM380 749h74l-24 -126h-74zM527 749h74l-24 -126h-74z" />
<glyph unicode="&#xe5;" horiz-adv-x="683" d="M721 547l-101 -547h-74l18 96q-54 -59 -107 -84t-123 -25q-111 0 -179 63.5t-68 165.5q0 32 5 56q22 123 120.5 205.5t221.5 82.5q71 0 117.5 -26t77.5 -84l18 97h74zM420 492q-88 0 -162 -63.5t-90 -153.5q-4 -19 -4 -42q0 -78 50.5 -128t130.5 -50q89 0 162 63.5 t90 156.5q4 20 4 43q0 77 -50 125.5t-131 48.5zM499 794q33 0 54.5 -21.5t21.5 -53.5q0 -5 -2 -17q-7 -38 -39 -65t-70 -27q-33 0 -55 21.5t-22 53.5q0 4 2 16q8 39 39.5 66t70.5 27zM490 753q-21 0 -38.5 -15.5t-21.5 -36.5q-1 -3 -1 -9q0 -18 12 -29.5t31 -11.5 q21 0 38.5 15t21.5 35q1 3 1 10q0 18 -12 30t-31 12z" />
<glyph unicode="&#xe6;" horiz-adv-x="1157" d="M1164 247h-495q-1 -7 -1 -19q0 -75 51 -124t130 -49q63 0 120.5 33.5t91.5 89.5h77q-44 -86 -127 -138.5t-174 -52.5q-131 0 -201 105l-17 -92h-71l17 92q-57 -56 -112.5 -80.5t-123.5 -24.5q-108 0 -175 64.5t-67 165.5q0 31 5 55q23 118 114 200q97 88 228 88 q140 0 198 -108l17 95h71l-17 -95q107 108 235 108q77 0 134.5 -36t84.5 -101q17 -42 17 -85q0 -40 -10 -91zM684 314h420q0 81 -48.5 129.5t-128.5 48.5q-82 0 -149.5 -49.5t-93.5 -128.5zM422 492q-91 0 -163.5 -63t-89.5 -155q-4 -20 -4 -43q0 -77 49 -126.5t129 -49.5 q92 0 166.5 64t91.5 158q5 25 5 44q0 77 -50 124t-134 47z" />
<glyph unicode="&#xe7;" horiz-adv-x="647" d="M341 -13l-28 -45q17 7 34 7q30 0 46.5 -16.5t16.5 -45.5q0 -12 -1 -18q-7 -41 -37.5 -67t-69.5 -26q-34 0 -53 19t-20 54l45 5q3 -35 37 -35q20 0 35 13t19 33q1 4 1 12q0 18 -10.5 28.5t-28.5 10.5q-23 0 -46 -24l-27 18l50 79q-98 10 -157 73.5t-59 157.5q0 23 5 55 q22 119 122.5 202t223.5 83q93 0 157 -48t82 -131h-83q-45 111 -170 111q-91 0 -165.5 -63.5t-91.5 -155.5q-4 -19 -4 -41q0 -77 51 -127t132 -50q58 0 106 24.5t101 81.5h84q-114 -171 -297 -174z" />
<glyph unicode="&#xe8;" horiz-adv-x="650" d="M657 249h-495q-1 -8 -1 -25q0 -72 50.5 -120.5t127.5 -48.5q62 0 121 34.5t93 90.5h77q-46 -86 -129 -139.5t-172 -53.5q-107 0 -174 66t-67 168q0 23 5 55q22 119 119.5 201.5t216.5 82.5q81 0 141.5 -40t83.5 -109q13 -41 13 -76q0 -29 -10 -86zM177 316h419 q-4 82 -52 129t-128 47q-78 0 -144 -48.5t-95 -127.5zM358 776l177 -110l-43 -56l-177 108z" />
<glyph unicode="&#xe9;" horiz-adv-x="650" d="M657 249h-495q-1 -8 -1 -25q0 -72 50.5 -120.5t127.5 -48.5q62 0 121 34.5t93 90.5h77q-46 -86 -129 -139.5t-172 -53.5q-107 0 -174 66t-67 168q0 23 5 55q22 119 119.5 201.5t216.5 82.5q81 0 141.5 -40t83.5 -109q13 -41 13 -76q0 -29 -10 -86zM177 316h419 q-4 82 -52 129t-128 47q-78 0 -144 -48.5t-95 -127.5zM369 666l215 116l23 -58l-214 -114z" />
<glyph unicode="&#xea;" horiz-adv-x="650" d="M657 249h-495q-1 -8 -1 -25q0 -72 50.5 -120.5t127.5 -48.5q62 0 121 34.5t93 90.5h77q-46 -86 -129 -139.5t-172 -53.5q-107 0 -174 66t-67 168q0 23 5 55q22 119 119.5 201.5t216.5 82.5q81 0 141.5 -40t83.5 -109q13 -41 13 -76q0 -29 -10 -86zM177 316h419 q-4 82 -52 129t-128 47q-78 0 -144 -48.5t-95 -127.5zM268 623l169 126h66l119 -126h-89l-72 74l-102 -74h-91z" />
<glyph unicode="&#xeb;" horiz-adv-x="650" d="M657 249h-495q-1 -8 -1 -25q0 -72 50.5 -120.5t127.5 -48.5q62 0 121 34.5t93 90.5h77q-46 -86 -129 -139.5t-172 -53.5q-107 0 -174 66t-67 168q0 23 5 55q22 119 119.5 201.5t216.5 82.5q81 0 141.5 -40t83.5 -109q13 -41 13 -76q0 -29 -10 -86zM177 316h419 q-4 82 -52 129t-128 47q-78 0 -144 -48.5t-95 -127.5zM358 749h74l-24 -126h-74zM505 749h74l-24 -126h-74z" />
<glyph unicode="&#xec;" horiz-adv-x="200" d="M63 0l101 547h74l-101 -547h-74zM161 776l177 -110l-43 -56l-177 108z" />
<glyph unicode="&#xed;" horiz-adv-x="200" d="M63 0l101 547h74l-101 -547h-74zM110 666l215 116l23 -58l-214 -114z" />
<glyph unicode="&#xee;" horiz-adv-x="200" d="M63 0l101 547h74l-101 -547h-74zM38 623l169 126h66l119 -126h-89l-72 74l-102 -74h-91z" />
<glyph unicode="&#xef;" horiz-adv-x="200" d="M129 749h74l-24 -126h-74zM276 749h74l-24 -126h-74zM64 0l101 547h74l-101 -547h-74z" />
<glyph unicode="&#xf0;" horiz-adv-x="655" d="M348 727l58 29q30 -24 58 -55l103 42l31 -44l-97 -39q45 -47 103 -123q68 -94 68 -189q0 -35 -7 -69q-24 -129 -116.5 -210.5t-216.5 -81.5q-110 0 -177.5 64t-67.5 166q0 27 6 57q22 121 115.5 201.5t210.5 80.5q42 0 93 -18q-55 68 -78 92l-94 -39l-28 46l86 35 q-1 2 -29 33q-7 7 -21 22zM417 492q-90 0 -161.5 -63t-88.5 -157q-4 -20 -4 -44q0 -77 49 -125t131 -48q90 0 158.5 60.5t86.5 155.5q5 28 5 48q0 78 -48 125.5t-128 47.5z" />
<glyph unicode="&#xf1;" horiz-adv-x="610" d="M63 0l101 547h74l-13 -71q84 84 192 84q119 0 170 -85q23 -40 23 -95q0 -40 -10 -93l-53 -287h-74l53 287q8 46 8 74q0 44 -19 75q-36 56 -120 56q-95 0 -154 -70q-33 -39 -48 -121l-56 -301h-74zM545 728l24 -46q-16 -20 -45.5 -34.5t-54.5 -14.5q-19 0 -62 22 q-23 10 -38 10q-23 0 -58 -26l-8 -6l-24 46q46 49 102 49q22 0 56 -17q32 -14 45 -14q28 0 63 31z" />
<glyph unicode="&#xf2;" horiz-adv-x="655" d="M436 560q105 0 169 -64t64 -165q0 -29 -6 -59q-23 -123 -116.5 -204t-214.5 -81q-110 0 -177.5 64t-67.5 166q0 27 6 56q23 125 120 206t223 81zM417 492q-90 0 -161.5 -63t-88.5 -157q-4 -20 -4 -44q0 -77 49 -125t130 -48q90 0 159.5 61t86.5 155q5 28 5 48 q0 78 -48 125.5t-128 47.5zM355 776l177 -110l-43 -56l-177 108z" />
<glyph unicode="&#xf3;" horiz-adv-x="655" d="M436 560q105 0 169 -64t64 -165q0 -29 -6 -59q-23 -123 -116.5 -204t-214.5 -81q-110 0 -177.5 64t-67.5 166q0 27 6 56q23 125 120 206t223 81zM417 492q-90 0 -161.5 -63t-88.5 -157q-4 -20 -4 -44q0 -77 49 -125t130 -48q90 0 159.5 61t86.5 155q5 28 5 48 q0 78 -48 125.5t-128 47.5zM370 666l215 116l23 -58l-214 -114z" />
<glyph unicode="&#xf4;" horiz-adv-x="655" d="M436 560q105 0 169 -64t64 -165q0 -29 -6 -59q-23 -123 -116.5 -204t-214.5 -81q-110 0 -177.5 64t-67.5 166q0 27 6 56q23 125 120 206t223 81zM417 492q-90 0 -161.5 -63t-88.5 -157q-4 -20 -4 -44q0 -77 49 -125t130 -48q90 0 159.5 61t86.5 155q5 28 5 48 q0 78 -48 125.5t-128 47.5zM265 623l169 126h66l119 -126h-89l-72 74l-102 -74h-91z" />
<glyph unicode="&#xf5;" horiz-adv-x="655" d="M436 560q105 0 169 -64t64 -165q0 -29 -6 -59q-23 -123 -116.5 -204t-214.5 -81q-110 0 -177.5 64t-67.5 166q0 27 6 56q23 125 120 206t223 81zM417 492q-90 0 -161.5 -63t-88.5 -157q-4 -20 -4 -44q0 -77 49 -125t130 -48q90 0 159.5 61t86.5 155q5 28 5 48 q0 78 -48 125.5t-128 47.5zM581 728l24 -46q-16 -20 -45.5 -34.5t-54.5 -14.5q-19 0 -62 22q-23 10 -38 10q-23 0 -58 -26l-8 -6l-24 46q46 49 102 49q22 0 56 -17q32 -14 45 -14q28 0 63 31z" />
<glyph unicode="&#xf6;" horiz-adv-x="655" d="M436 560q105 0 169 -64t64 -165q0 -29 -6 -59q-23 -123 -116.5 -204t-214.5 -81q-110 0 -177.5 64t-67.5 166q0 27 6 56q23 125 120 206t223 81zM417 492q-90 0 -161.5 -63t-88.5 -157q-4 -20 -4 -44q0 -77 49 -125t130 -48q90 0 159.5 61t86.5 155q5 28 5 48 q0 78 -48 125.5t-128 47.5zM356 749h74l-24 -126h-74zM503 749h74l-24 -126h-74z" />
<glyph unicode="&#xf7;" horiz-adv-x="606" d="M422 409h-87l16 87h87zM367 112h-87l16 87h87zM618 341l-14 -74h-504l14 74h504z" />
<glyph unicode="&#xf8;" horiz-adv-x="653" d="M73 1l64 67q-50 73 -50 145q0 33 5 59q23 120 121.5 204t218.5 84q79 0 138 -41l71 75l45 -42l-69 -74q52 -58 52 -139q0 -28 -6 -58q-24 -128 -118.5 -211t-217.5 -83q-76 0 -144 41l-64 -67zM188 121l333 347q-43 24 -101 24q-90 0 -163 -65t-91 -161q-4 -21 -4 -46 q0 -48 26 -99zM566 426l-333 -347q49 -24 100 -24q94 0 165 62.5t90 162.5q5 30 5 50q0 51 -27 96z" />
<glyph unicode="&#xf9;" horiz-adv-x="608" d="M646 547l-101 -547h-74l16 85q-72 -98 -194 -98q-131 0 -175 92q-18 34 -18 84q0 32 10 89l54 295h74l-54 -295q-8 -42 -8 -71q0 -36 11 -61q29 -65 123 -65q91 0 151 68q42 50 59 143l52 281h74zM332 776l177 -110l-43 -56l-177 108z" />
<glyph unicode="&#xfa;" horiz-adv-x="608" d="M646 547l-101 -547h-74l16 85q-72 -98 -194 -98q-131 0 -175 92q-18 34 -18 84q0 32 10 89l54 295h74l-54 -295q-8 -42 -8 -71q0 -36 11 -61q29 -65 123 -65q91 0 151 68q42 50 59 143l52 281h74zM347 666l215 116l23 -58l-214 -114z" />
<glyph unicode="&#xfb;" horiz-adv-x="608" d="M646 547l-101 -547h-74l16 85q-72 -98 -194 -98q-131 0 -175 92q-18 34 -18 84q0 32 10 89l54 295h74l-54 -295q-8 -42 -8 -71q0 -36 11 -61q29 -65 123 -65q91 0 151 68q42 50 59 143l52 281h74zM242 623l169 126h66l119 -126h-89l-72 74l-102 -74h-91z" />
<glyph unicode="&#xfc;" horiz-adv-x="608" d="M646 547l-101 -547h-74l16 85q-72 -98 -194 -98q-131 0 -175 92q-18 34 -18 84q0 32 10 89l54 295h74l-54 -295q-8 -42 -8 -71q0 -36 11 -61q29 -65 123 -65q91 0 151 68q42 50 59 143l52 281h74zM333 749h74l-24 -126h-74zM480 749h74l-24 -126h-74z" />
<glyph unicode="&#xfd;" horiz-adv-x="536" d="M96 -192l128 210l-114 529h81l93 -436l265 436h79l-453 -739h-79zM318 666l215 116l23 -58l-214 -114z" />
<glyph unicode="&#xfe;" horiz-adv-x="682" d="M200 739h74l-53 -286q90 107 235 107q107 0 173.5 -64.5t66.5 -166.5q0 -32 -5 -56q-23 -121 -121.5 -203.5t-221.5 -82.5q-140 0 -194 107l-53 -286h-74zM437 492q-90 0 -163.5 -63.5t-90.5 -155.5q-4 -20 -4 -42q0 -77 50 -126.5t130 -49.5q92 0 165.5 62t90.5 154 q5 27 5 46q0 78 -50 126.5t-133 48.5z" />
<glyph unicode="&#xff;" horiz-adv-x="536" d="M96 -192l128 210l-114 529h81l93 -436l265 436h79l-453 -739h-79zM294 749h74l-24 -126h-74zM441 749h74l-24 -126h-74z" />
<glyph unicode="&#x152;" horiz-adv-x="1194" d="M882 739h393l-12 -67h-319l-50 -265h308l-12 -67h-308l-51 -273h319l-12 -67h-393l28 151q-124 -164 -330 -164q-152 0 -244.5 86t-92.5 223q0 39 7 75q30 163 160.5 272t297.5 109q104 0 178 -41.5t106 -118.5zM554 684q-132 0 -236.5 -89.5t-129.5 -223.5 q-6 -32 -6 -61q0 -112 73.5 -183.5t192.5 -71.5q134 0 238 89.5t129 226.5q6 35 6 66q0 112 -72 179.5t-195 67.5z" />
<glyph unicode="&#x153;" horiz-adv-x="1137" d="M1142 248h-488q-2 -20 -2 -29q0 -47 29 -89q53 -75 153 -75q129 0 211 124h74q-35 -76 -112 -132q-81 -60 -181 -60q-86 0 -147 40t-82 111q-59 -78 -123.5 -114.5t-144.5 -36.5q-108 0 -174.5 65.5t-66.5 166.5q0 31 5 55q22 121 119 203.5t216 82.5q158 0 220 -146 q112 146 272 146q106 0 171 -62t65 -160q0 -22 -5 -52q0 -4 -1.5 -9t-4 -14t-3.5 -15zM666 315h419q0 80 -49 128.5t-130 48.5q-77 0 -141 -47.5t-99 -129.5zM414 492q-88 0 -158.5 -62.5t-87.5 -156.5q-4 -20 -4 -43q0 -76 49 -125.5t128 -49.5q88 0 158.5 63t87.5 157 q4 21 4 45q0 76 -48.5 124t-128.5 48z" />
<glyph unicode="&#x178;" horiz-adv-x="592" d="M258 0l46 247l-165 492h82l133 -414l292 414h81l-349 -492l-46 -247h-74zM359 931h74l-24 -126h-74zM506 931h74l-24 -126h-74z" />
<glyph unicode="&#x2c6;" horiz-adv-x="502" d="M189 623l169 126h66l119 -126h-89l-72 74l-102 -74h-91z" />
<glyph unicode="&#x2dc;" horiz-adv-x="439" d="M467 728l24 -46q-16 -20 -45.5 -34.5t-54.5 -14.5q-19 0 -62 22q-23 10 -38 10q-23 0 -58 -26l-8 -6l-24 46q46 49 102 49q22 0 56 -17q32 -14 45 -14q28 0 63 31z" />
<glyph unicode="&#x2000;" horiz-adv-x="488" />
<glyph unicode="&#x2001;" horiz-adv-x="976" />
<glyph unicode="&#x2002;" horiz-adv-x="488" />
<glyph unicode="&#x2003;" horiz-adv-x="976" />
<glyph unicode="&#x2004;" horiz-adv-x="325" />
<glyph unicode="&#x2005;" horiz-adv-x="244" />
<glyph unicode="&#x2006;" horiz-adv-x="162" />
<glyph unicode="&#x2007;" horiz-adv-x="162" />
<glyph unicode="&#x2008;" horiz-adv-x="122" />
<glyph unicode="&#x2009;" horiz-adv-x="195" />
<glyph unicode="&#x200a;" horiz-adv-x="54" />
<glyph unicode="&#x2010;" horiz-adv-x="332" d="M86 296h271l-12 -63h-271z" />
<glyph unicode="&#x2011;" horiz-adv-x="332" d="M86 296h271l-12 -63h-271z" />
<glyph unicode="&#x2012;" horiz-adv-x="332" d="M86 296h271l-12 -63h-271z" />
<glyph unicode="&#x2013;" horiz-adv-x="500" d="M55 296h500l-12 -63h-500z" />
<glyph unicode="&#x2014;" horiz-adv-x="1000" d="M55 296h1000l-12 -63h-1000z" />
<glyph unicode="&#x2018;" horiz-adv-x="351" d="M361 547h-74l-52 192h74z" />
<glyph unicode="&#x2019;" horiz-adv-x="351" d="M192 547l124 192h74l-124 -192h-74z" />
<glyph unicode="&#x201a;" horiz-adv-x="354" d="M77 -67l123 193h74l-123 -193h-74z" />
<glyph unicode="&#x201c;" horiz-adv-x="502" d="M507 547h-74l-52 192h74zM359 547h-74l-52 192h74z" />
<glyph unicode="&#x201d;" horiz-adv-x="484" d="M188 547l124 192h74l-124 -192h-74zM332 547l124 192h74l-124 -192h-74z" />
<glyph unicode="&#x201e;" horiz-adv-x="502" d="M77 -67l123 193h74l-123 -193h-74zM224 -67l123 193h74l-123 -193h-74z" />
<glyph unicode="&#x2022;" horiz-adv-x="606" d="M396 488q66 0 108.5 -43t42.5 -108q0 -16 -3 -34q-14 -77 -78 -131t-141 -54q-67 0 -110.5 43t-43.5 108q0 16 3 34q14 78 78.5 131.5t143.5 53.5z" />
<glyph unicode="&#x2026;" horiz-adv-x="1000" d="M130 0l23 126h74l-23 -126h-74zM463 0l23 126h74l-23 -126h-74zM796 0l23 126h74l-23 -126h-74z" />
<glyph unicode="&#x202f;" horiz-adv-x="195" />
<glyph unicode="&#x2039;" horiz-adv-x="251" d="M170 99l-74 201l148 199l54 -32l-124 -167l61 -168z" />
<glyph unicode="&#x203a;" horiz-adv-x="251" d="M117 99l-53 33l125 168l-62 167l64 32l75 -199z" />
<glyph unicode="&#x205f;" horiz-adv-x="244" />
<glyph unicode="&#x20ac;" horiz-adv-x="870" d="M795 67q-112 -80 -250 -80q-137 0 -225 76t-99 200h-126l42 67h85q0 4 5 37q4 20 7 30h-114l42 67h94q55 129 170.5 208.5t254.5 79.5q87 0 155.5 -32.5t109.5 -91.5l-48 -77q-27 59 -66 86q-65 47 -160 47q-107 0 -199.5 -61t-139.5 -159h511l-42 -67h-493l-6 -27 q-5 -21 -6 -40h463l-42 -67h-417q17 -92 86 -150t169 -58q140 0 258 114z" />
<glyph unicode="&#x2122;" horiz-adv-x="1000" d="M1075 739l-74 -399h-64l64 344l-220 -344h-42l-87 345l-64 -345h-64l74 399h109l74 -284l188 284h106zM550 739l-11 -58h-144l-63 -341h-64l63 341h-142l11 58h350z" />
<glyph unicode="&#x25fc;" horiz-adv-x="545" d="M0 545h545v-545h-545v545z" />
</font>
</defs>
</svg>
