<?xml version="1.0" encoding="UTF-8"?>
<svg id="Layer_1" data-name="Layer 1" xmlns="http://www.w3.org/2000/svg" viewBox="0 0 196.13 92.35">
  <defs>
    <style>
      .cls-1 {
        fill: #2e77bb;
      }

      .cls-2 {
        fill: #f06769;
      }

      .cls-3 {
        fill: #231f20;
      }
    </style>
  </defs>
  <path class="cls-3" d="m30.62,54.3c-7.28.02-14.27-2.86-19.43-8-5.15-5.09-8.05-12.03-8.06-19.27v-12c.08-1.13,1.06-1.99,2.2-1.91,1.02.07,1.84.89,1.91,1.91v12c.27,12.92,10.95,23.17,23.87,22.9,12.54-.26,22.64-10.36,22.9-22.9v-12c.08-1.13,1.06-1.99,2.2-1.91,1.02.07,1.84.89,1.91,1.91v12c0,7.25-2.91,14.19-8.06,19.29-5.16,5.13-12.16,8-19.44,7.98Z"/>
  <ellipse class="cls-1" cx="5.19" cy="5.14" rx="5.19" ry="5.14"/>
  <ellipse class="cls-1" cx="56.06" cy="5.14" rx="5.19" ry="5.14"/>
  <path class="cls-3" d="m64.49,79.17c-6.68-.04-12.05-5.49-12.01-12.17.04-6.68,5.49-12.05,12.17-12.01,6.63.04,11.98,5.41,12.01,12.04,0,6.7-5.44,12.14-12.14,12.14-.01,0-.02,0-.03,0Zm0-20.07c-4.42.03-7.97,3.64-7.94,8.06.03,4.42,3.64,7.97,8.06,7.94,4.39-.03,7.94-3.6,7.94-8,.03-4.42-3.53-8.02-7.95-8.05-.04,0-.07,0-.11,0v.05Z"/>
  <ellipse class="cls-1" cx="64.49" cy="67.03" rx="6.11" ry="6.06"/>
  <path class="cls-3" d="m19.78,92.34c-7.65.21-14.02-5.83-14.23-13.48-.21-7.65,5.83-14.02,13.48-14.23.25,0,.5,0,.74,0h9.85v-10.27c.08-1.13,1.06-1.99,2.2-1.91,1.02.07,1.84.89,1.91,1.91v10.27h19.59c1.13.08,1.99,1.06,1.91,2.2-.07,1.02-.89,1.84-1.91,1.91h-19.59v9.75c-.04,7.68-6.28,13.87-13.96,13.85Zm0-23.6c-5.38.06-9.7,4.46-9.65,9.85.06,5.38,4.46,9.7,9.85,9.65,5.35-.05,9.65-4.4,9.65-9.75v-9.75h-9.85Z"/>
  <path class="cls-3" d="m30.62,55.7c-6.13,0-12.11-1.93-17.07-5.53-1.66-1.19-2.04-3.5-.85-5.15,1.19-1.66,3.5-2.04,5.16-.85h0c7.64,5.49,17.93,5.49,25.57,0,1.64-1.22,3.96-.88,5.18.76,1.22,1.64.88,3.96-.76,5.18-.03.02-.06.04-.09.06-4.98,3.62-10.98,5.55-17.14,5.53Z"/>
  <path class="cls-2" d="m178.71,52.1c8.49-8.49,8.49-22.26,0-30.75s-22.26-8.49-30.75,0l-3.78,3.79,30.74,30.75,3.79-3.79Z"/>
  <path class="cls-2" d="m174.92,58.67l-33.52-33.53,5.21-5.17c9.5-9,24.5-8.6,33.5.91,8.66,9.15,8.66,23.47-.01,32.61l-5.18,5.18Zm-28-33.52l28,28,2.41-2.4c7.73-7.73,7.73-20.27,0-28s-20.27-7.73-28,0l-2.41,2.4Z"/>
  <path class="cls-3" d="m144.17,89.41l-35.92-35.92c-9.26-9.26-9.26-24.26,0-33.52,9.26-9.26,24.26-9.26,33.52,0l35.92,35.92-33.52,33.52Zm-19.16-72.46c-10.92,0-19.79,8.84-19.8,19.76,0,5.25,2.08,10.29,5.8,14.01l33.16,33.14,28-28-33.17-33.12c-3.7-3.72-8.74-5.81-13.99-5.79Z"/>
  <circle class="cls-2" cx="187.88" cy="12.18" r="8.25"/>
  <circle class="cls-2" cx="100.47" cy="12.18" r="8.25"/>
</svg>