<?xml version="1.0" encoding="UTF-8"?>
<svg id="Layer_1" data-name="Layer 1" xmlns="http://www.w3.org/2000/svg" viewBox="0 0 196.75 93.3">
  <defs>
    <style>
      .cls-1 {
        fill: #8e6eaf;
      }

      .cls-2 {
        fill: #2e77bb;
      }

      .cls-3 {
        fill: #231f20;
      }
    </style>
  </defs>
  <path class="cls-3" d="m30.62,54.3c-7.28.02-14.27-2.86-19.43-8-5.15-5.09-8.05-12.03-8.06-19.27v-12c.08-1.13,1.06-1.99,2.2-1.91,1.02.07,1.84.89,1.91,1.91v12c.27,12.92,10.95,23.17,23.87,22.9,12.54-.26,22.64-10.36,22.9-22.9v-12c.08-1.13,1.06-1.99,2.2-1.91,1.02.07,1.84.89,1.91,1.91v12c0,7.25-2.91,14.19-8.06,19.29-5.16,5.13-12.16,8-19.44,7.98Z"/>
  <ellipse class="cls-2" cx="5.19" cy="5.14" rx="5.19" ry="5.14"/>
  <ellipse class="cls-2" cx="56.06" cy="5.14" rx="5.19" ry="5.14"/>
  <path class="cls-3" d="m64.49,79.17c-6.68-.04-12.05-5.49-12.01-12.17.04-6.68,5.49-12.05,12.17-12.01,6.63.04,11.98,5.41,12.01,12.04,0,6.7-5.44,12.14-12.14,12.14-.01,0-.02,0-.03,0Zm0-20.07c-4.42.03-7.97,3.64-7.94,8.06.03,4.42,3.64,7.97,8.06,7.94,4.39-.03,7.94-3.6,7.94-8,.03-4.42-3.53-8.02-7.95-8.05-.04,0-.07,0-.11,0v.05Z"/>
  <ellipse class="cls-2" cx="64.49" cy="67.03" rx="6.11" ry="6.06"/>
  <path class="cls-3" d="m19.78,92.34c-7.65.21-14.02-5.83-14.23-13.48-.21-7.65,5.83-14.02,13.48-14.23.25,0,.5,0,.74,0h9.85v-10.27c.08-1.13,1.06-1.99,2.2-1.91,1.02.07,1.84.89,1.91,1.91v10.27h19.59c1.13.08,1.99,1.06,1.91,2.2-.07,1.02-.89,1.84-1.91,1.91h-19.59v9.75c-.04,7.68-6.28,13.87-13.96,13.85Zm0-23.6c-5.38.06-9.7,4.46-9.65,9.85.06,5.38,4.46,9.7,9.85,9.65,5.35-.05,9.65-4.4,9.65-9.75v-9.75h-9.85Z"/>
  <path class="cls-3" d="m30.62,55.7c-6.13,0-12.11-1.93-17.07-5.53-1.66-1.19-2.04-3.5-.85-5.15,1.19-1.66,3.5-2.04,5.16-.85h0c7.64,5.49,17.93,5.49,25.57,0,1.64-1.22,3.96-.88,5.18.76,1.22,1.64.88,3.96-.76,5.18-.03.02-.06.04-.09.06-4.98,3.62-10.98,5.55-17.14,5.53Z"/>
  <path class="cls-3" d="m113.82,73.55c-.72,0-1.4-.39-1.78-1-14.02-21.31-8.11-49.94,13.2-63.96,15.36-10.1,35.25-10.14,50.64-.08,1,.64,1.29,1.97.65,2.97-.64,1-1.97,1.29-2.97.65-19.32-12.73-45.31-7.38-58.04,11.94-9.23,14.01-9.21,32.17.04,46.16.66.98.4,2.3-.58,2.96-.36.24-.77.37-1.2.36h.04Z"/>
  <path class="cls-3" d="m150.56,93.3c-8.9.01-17.61-2.55-25.08-7.39-1-.63-1.29-1.96-.66-2.95s1.96-1.29,2.95-.66c.01,0,.02.01.03.02,19.43,12.56,45.37,7,57.94-12.44,9.13-14.11,8.93-32.31-.49-46.23-.7-.95-.5-2.29.46-2.99s2.29-.5,2.99.46c.03.04.06.09.09.14,14.3,21.11,8.78,49.81-12.33,64.11-7.65,5.18-16.68,7.95-25.91,7.94Z"/>
  <path class="cls-3" d="m150.56,11.39c-1.18,0-2.14-.96-2.14-2.14V3.13c0-1.18.96-2.14,2.14-2.14,1.18,0,2.14.96,2.14,2.14v6.16c-.02,1.17-.97,2.1-2.14,2.1Z"/>
  <path class="cls-3" d="m150.56,93.3c-1.18,0-2.13-.94-2.14-2.12,0-.02,0-.03,0-.05v-6.12c0-1.18.96-2.14,2.14-2.14,1.18,0,2.14.96,2.14,2.14v6.12c.02,1.18-.91,2.15-2.09,2.17-.02,0-.03,0-.05,0Z"/>
  <path class="cls-3" d="m194.56,49.27h-6.12c-1.18,0-2.14-.96-2.14-2.14,0-1.18.96-2.14,2.14-2.14h6.12c1.18,0,2.14.96,2.14,2.14,0,1.18-.96,2.14-2.14,2.14Z"/>
  <path class="cls-3" d="m112.68,49.27h-6.12c-1.18,0-2.14-.96-2.14-2.14,0-1.18.96-2.14,2.14-2.14h6.16c1.18,0,2.14.96,2.14,2.14,0,1.18-.96,2.14-2.14,2.14h-.04Z"/>
  <path class="cls-1" d="m111.69,84.92l29.2-46.2c.32-.51.75-.94,1.26-1.27l46.21-29.18c.37-.22.85-.1,1.07.27.15.25.15.56,0,.8l-29.2,46.2c-.32.51-.75.94-1.26,1.27l-46.21,29.18c-.37.22-.85.1-1.07-.27-.15-.25-.15-.56,0-.8Z"/>
</svg>