<?xml version="1.0" encoding="UTF-8"?>
<svg id="Layer_1" data-name="Layer 1" xmlns="http://www.w3.org/2000/svg" viewBox="0 0 206 92.31">
  <defs>
    <style>
      .cls-1 {
        fill: #8e6eaf;
      }

      .cls-2 {
        fill: #f06769;
      }

      .cls-3 {
        fill: #231f20;
      }
    </style>
  </defs>
  <path class="cls-2" d="m86.49,51.11c8.49-8.49,8.49-22.26,0-30.75s-22.26-8.49-30.75,0l-3.78,3.79,30.74,30.75,3.79-3.79Z"/>
  <path class="cls-2" d="m82.7,57.68L49.18,24.15l5.21-5.17c9.5-9,24.5-8.6,33.5.91,8.66,9.15,8.66,23.47-.01,32.61l-5.18,5.18Zm-28-33.52l28,28,2.41-2.4c7.73-7.73,7.73-20.27,0-28s-20.27-7.73-28,0l-2.41,2.4Z"/>
  <path class="cls-3" d="m51.95,88.42L16.03,52.5c-9.26-9.26-9.26-24.26,0-33.52,9.26-9.26,24.26-9.26,33.52,0l35.92,35.92-33.52,33.52ZM32.79,15.96c-10.92,0-19.79,8.84-19.8,19.76,0,5.25,2.08,10.29,5.8,14.01l33.16,33.14,28-28L46.78,21.75c-3.7-3.72-8.74-5.81-13.99-5.79Z"/>
  <circle class="cls-2" cx="95.66" cy="11.19" r="8.25"/>
  <circle class="cls-2" cx="8.25" cy="11.19" r="8.25"/>
  <path class="cls-3" d="m123.07,72.56c-.72,0-1.4-.39-1.78-1-14.02-21.31-8.11-49.94,13.2-63.96,15.36-10.1,35.25-10.14,50.64-.08,1,.64,1.29,1.97.65,2.97-.64,1-1.97,1.29-2.97.65-19.32-12.73-45.31-7.38-58.04,11.94-9.23,14.01-9.21,32.17.04,46.16.66.98.4,2.3-.58,2.96-.36.24-.77.37-1.2.36h.04Z"/>
  <path class="cls-3" d="m159.81,92.31c-8.9.01-17.61-2.55-25.08-7.39-1-.63-1.29-1.96-.66-2.95s1.96-1.29,2.95-.66c.01,0,.02.01.03.02,19.43,12.56,45.37,7,57.94-12.44,9.13-14.11,8.93-32.31-.49-46.23-.7-.95-.5-2.29.46-2.99s2.29-.5,2.99.46c.03.04.06.09.09.14,14.3,21.11,8.78,49.81-12.33,64.11-7.65,5.18-16.68,7.95-25.91,7.94Z"/>
  <path class="cls-3" d="m159.81,10.4c-1.18,0-2.14-.96-2.14-2.14V2.14c0-1.18.96-2.14,2.14-2.14,1.18,0,2.14.96,2.14,2.14v6.16c-.02,1.17-.97,2.1-2.14,2.1Z"/>
  <path class="cls-3" d="m159.81,92.31c-1.18,0-2.13-.94-2.14-2.12,0-.02,0-.03,0-.05v-6.12c0-1.18.96-2.14,2.14-2.14,1.18,0,2.14.96,2.14,2.14v6.12c.02,1.18-.91,2.15-2.09,2.17-.02,0-.03,0-.05,0Z"/>
  <path class="cls-3" d="m203.81,48.28h-6.12c-1.18,0-2.14-.96-2.14-2.14,0-1.18.96-2.14,2.14-2.14h6.12c1.18,0,2.14.96,2.14,2.14,0,1.18-.96,2.14-2.14,2.14Z"/>
  <path class="cls-3" d="m121.93,48.28h-6.12c-1.18,0-2.14-.96-2.14-2.14,0-1.18.96-2.14,2.14-2.14h6.16c1.18,0,2.14.96,2.14,2.14,0,1.18-.96,2.14-2.14,2.14h-.04Z"/>
  <path class="cls-1" d="m120.94,83.93l29.2-46.2c.32-.51.75-.94,1.26-1.27l46.21-29.18c.37-.22.85-.1,1.07.27.15.25.15.56,0,.8l-29.2,46.2c-.32.51-.75.94-1.26,1.27l-46.21,29.18c-.37.22-.85.1-1.07-.27-.15-.25-.15-.56,0-.8Z"/>
</svg>