<svg id="Layer_1" data-name="Layer 1" xmlns="http://www.w3.org/2000/svg" viewBox="0 0 113.74 100"><defs><style>.cls-1{fill:#f06769;}.cls-2{fill:#fff;}</style></defs><path class="cls-1" d="M91.1,55.43A21.74,21.74,0,0,0,60.35,24.68l-3.78,3.79L87.31,59.22Z"/><path class="cls-1" d="M87.31,62,53.79,28.47,59,23.3A23.7,23.7,0,0,1,92.49,56.82Zm-28-33.52,28,28,2.41-2.4a19.78,19.78,0,0,0-28-28Zm31.76,27Z"/><path class="cls-2" d="M56.56,92.74,20.64,56.82A23.7,23.7,0,0,1,54.16,23.3L90.08,59.22ZM37.4,20.28a19.78,19.78,0,0,0-14,33.77L56.56,87.19l28-28L51.39,26.07A19.62,19.62,0,0,0,37.4,20.28Z"/><circle class="cls-1" cx="100.27" cy="15.51" r="8.25"/><circle class="cls-1" cx="12.86" cy="15.51" r="8.25"/></svg>