<svg id="Layer_1" data-name="Layer 1" xmlns="http://www.w3.org/2000/svg" viewBox="0 0 100 100"><defs><style>.cls-1{fill:#231f20;}.cls-2{fill:#8e6eaf;}</style></defs><path class="cls-1" d="M13.26,76.42a2.13,2.13,0,0,1-1.78-1A46.18,46.18,0,0,1,75.32,11.38,2.14,2.14,0,0,1,73,15,41.9,41.9,0,0,0,15,73.1a2.13,2.13,0,0,1-1.78,3.32Z"/><path class="cls-1" d="M50,96.17a46,46,0,0,1-25.08-7.39,2.14,2.14,0,1,1,2.33-3.59A41.9,41.9,0,0,0,84.7,26.52a2.14,2.14,0,1,1,3.54-2.4A46.16,46.16,0,0,1,50,96.17Z"/><path class="cls-1" d="M50,14.26a2.14,2.14,0,0,1-2.14-2.14V6a2.14,2.14,0,0,1,4.28,0v6.16A2.14,2.14,0,0,1,50,14.26Z"/><path class="cls-1" d="M50,96.17A2.13,2.13,0,0,1,47.86,94V87.88a2.14,2.14,0,0,1,4.28,0V94A2.13,2.13,0,0,1,50,96.17Z"/><path class="cls-1" d="M94,52.14H87.88a2.14,2.14,0,0,1,0-4.28H94a2.14,2.14,0,0,1,0,4.28Z"/><path class="cls-1" d="M12.12,52.14H6a2.14,2.14,0,0,1,0-4.28h6.16a2.14,2.14,0,0,1,0,4.28Z"/><path class="cls-2" d="M11.13,87.79l29.2-46.2a4.13,4.13,0,0,1,1.26-1.27L87.8,11.14a.78.78,0,0,1,1.07,1.07l-29.2,46.2a4.13,4.13,0,0,1-1.26,1.27L12.2,88.86A.78.78,0,0,1,11.13,87.79Z"/></svg>