<svg id="Layer_1" data-name="Layer 1" xmlns="http://www.w3.org/2000/svg" viewBox="0 0 100 100"><defs><style>.cls-1{fill:#231f20;}.cls-2{fill:#90be6e;}</style></defs><path class="cls-1" d="M50.14,80.64c-1,0-2,0-3-.15A30.71,30.71,0,0,1,26.82,69.75a30.81,30.81,0,0,1-3.82-34A30.21,30.21,0,0,1,64.05,22.9,30.76,30.76,0,0,1,77,64.25,30.29,30.29,0,0,1,50.14,80.64Zm-.3-57.27A26.19,26.19,0,0,0,42,24.57a26.7,26.7,0,0,0-4.21,49A26.09,26.09,0,0,0,58,75.43h0a26.15,26.15,0,0,0,15.48-13,26.76,26.76,0,0,0-23.6-39Z"/><ellipse class="cls-2" cx="50" cy="50" rx="19.71" ry="19.88" transform="translate(-12.65 17.22) rotate(-17.38)"/><path class="cls-1" d="M84.37,29.6a13.92,13.92,0,0,1-13.28-9.84A14.11,14.11,0,0,1,91,3a13.84,13.84,0,0,1,6.85,8.25,14.15,14.15,0,0,1-9.23,17.64A13.88,13.88,0,0,1,84.37,29.6Zm.21-24.14a10.14,10.14,0,0,0-9.66,13.12,9.9,9.9,0,0,0,4.88,5.88h0a9.83,9.83,0,0,0,7.61.65A10.14,10.14,0,0,0,94,12.47a9.91,9.91,0,0,0-9.45-7Z"/><path class="cls-1" d="M15.41,98.54A13.72,13.72,0,0,1,9,97H9a14.11,14.11,0,0,1,2.38-25.89A13.9,13.9,0,0,1,28.9,80.24a14.14,14.14,0,0,1-13.49,18.3Zm-4.57-5.13a10.1,10.1,0,0,0,14.23-12,9.89,9.89,0,0,0-12.49-6.53,10.1,10.1,0,0,0-1.74,18.52Z"/><path class="cls-1" d="M70.31,32.08a2,2,0,0,1-1.43-.61,2,2,0,0,1,0-2.83l5.89-5.75a2,2,0,1,1,2.8,2.86l-5.89,5.76A2,2,0,0,1,70.31,32.08Z"/><path class="cls-1" d="M23.74,77.63a2,2,0,0,1-1.43-.6,2,2,0,0,1,0-2.84l5.88-5.75A2,2,0,1,1,31,71.3l-5.88,5.76A2,2,0,0,1,23.74,77.63Z"/></svg>