<?xml version="1.0" encoding="UTF-8"?>
<svg id="Layer_1" data-name="Layer 1" xmlns="http://www.w3.org/2000/svg" viewBox="0 0 207.99 97.1">
  <defs>
    <style>
      .cls-1 {
        fill: #2e77bb;
      }

      .cls-2 {
        fill: #90be6e;
      }

      .cls-3 {
        fill: #231f20;
      }
    </style>
  </defs>
  <path class="cls-3" d="m48.6,79.2c-1,0-2,0-3-.15-7.91-.81-15.19-4.66-20.32-10.74-8.03-9.52-9.53-22.94-3.82-34,7.63-14.84,25.85-20.67,40.68-13.04.12.06.24.13.37.19,14.94,7.89,20.72,26.35,12.95,41.35-5.19,10.05-15.55,16.37-26.86,16.39Zm-.3-57.27c-2.66,0-5.3.4-7.84,1.2-14.02,4.56-21.69,19.63-17.13,33.65,2.15,6.6,6.78,12.11,12.92,15.35,6.21,3.32,13.5,3.99,20.21,1.86h0c6.69-2.08,12.27-6.77,15.48-13,6.76-13.14,1.59-29.28-11.56-36.04-3.73-1.92-7.85-2.93-12.04-2.96l-.04-.06Z"/>
  <ellipse class="cls-2" cx="48.46" cy="48.56" rx="19.71" ry="19.88" transform="translate(-12.29 16.69) rotate(-17.38)"/>
  <path class="cls-3" d="m82.83,28.16c-6.11-.01-11.49-4-13.28-9.84-2.32-7.44,1.82-15.35,9.26-17.67,3.53-1.1,7.36-.77,10.65.91,3.3,1.72,5.77,4.69,6.85,8.25,2.28,7.42-1.84,15.28-9.23,17.64-1.37.46-2.81.7-4.25.71Zm.21-24.14c-5.6.02-10.13,4.57-10.11,10.17,0,1,.15,1.99.45,2.95.77,2.53,2.53,4.65,4.88,5.88h0c2.35,1.23,5.09,1.47,7.61.65,5.29-1.7,8.23-7.33,6.59-12.64-1.28-4.15-5.11-6.99-9.45-7h.03Z"/>
  <path class="cls-3" d="m13.87,97.1c-2.23.02-4.43-.51-6.41-1.54h0c-6.87-3.67-9.46-12.22-5.79-19.1,1.73-3.24,4.66-5.68,8.17-6.79,7.31-2.34,15.14,1.69,17.48,9,.01.04.03.09.04.13,2.3,7.46-1.89,15.38-9.35,17.67-1.34.41-2.73.62-4.14.63Zm-4.57-5.13c4.97,2.53,11.05.56,13.58-4.41,1.2-2.35,1.43-5.07.65-7.59-1.59-5.22-7.12-8.17-12.34-6.58-.05.01-.1.03-.15.05-5.32,1.68-8.26,7.36-6.58,12.68.79,2.5,2.53,4.6,4.84,5.84h0Z"/>
  <path class="cls-3" d="m68.77,30.64c-.54,0-1.06-.22-1.43-.61-.78-.78-.78-2.05,0-2.83,0,0,0,0,0,0l5.89-5.75c.79-.77,2.06-.76,2.83.03s.76,2.06-.03,2.83l-5.89,5.76c-.37.36-.86.56-1.37.57Z"/>
  <path class="cls-3" d="m22.2,76.19c-.54,0-1.05-.22-1.43-.6-.78-.78-.79-2.04-.01-2.83,0,0,0,0,.01-.01l5.88-5.75c.79-.78,2.06-.76,2.84.03.78.79.76,2.06-.02,2.83l-5.88,5.76c-.37.36-.86.57-1.38.57Z"/>
  <path class="cls-3" d="m161.95,57.08c-7.28.02-14.27-2.86-19.43-8-5.15-5.09-8.05-12.03-8.06-19.27v-12c.08-1.13,1.06-1.99,2.2-1.91,1.02.07,1.84.89,1.91,1.91v12c.27,12.92,10.95,23.17,23.87,22.9,12.54-.26,22.64-10.36,22.9-22.9v-12c.08-1.13,1.06-1.99,2.2-1.91,1.02.07,1.84.89,1.91,1.91v12c0,7.25-2.91,14.19-8.06,19.29-5.16,5.13-12.16,8-19.44,7.98Z"/>
  <ellipse class="cls-1" cx="136.52" cy="7.92" rx="5.19" ry="5.14"/>
  <ellipse class="cls-1" cx="187.39" cy="7.92" rx="5.19" ry="5.14"/>
  <path class="cls-3" d="m195.82,81.95c-6.68-.04-12.05-5.49-12.01-12.17.04-6.68,5.49-12.05,12.17-12.01,6.63.04,11.98,5.41,12.01,12.04,0,6.7-5.44,12.14-12.14,12.14-.01,0-.02,0-.03,0Zm0-20.07c-4.42.03-7.97,3.64-7.94,8.06.03,4.42,3.64,7.97,8.06,7.94,4.39-.03,7.94-3.6,7.94-8,.03-4.42-3.53-8.02-7.95-8.05-.04,0-.07,0-.11,0v.05Z"/>
  <ellipse class="cls-1" cx="195.82" cy="69.81" rx="6.11" ry="6.06"/>
  <path class="cls-3" d="m151.11,95.12c-7.65.21-14.02-5.83-14.23-13.48-.21-7.65,5.83-14.02,13.48-14.23.25,0,.5,0,.74,0h9.85v-10.27c.08-1.13,1.06-1.99,2.2-1.91,1.02.07,1.84.89,1.91,1.91v10.27h19.59c1.13.08,1.99,1.06,1.91,2.2-.07,1.02-.89,1.84-1.91,1.91h-19.59v9.75c-.04,7.68-6.28,13.87-13.96,13.85Zm0-23.6c-5.38.06-9.7,4.46-9.65,9.85.06,5.38,4.46,9.7,9.85,9.65,5.35-.05,9.65-4.4,9.65-9.75v-9.75h-9.85Z"/>
  <path class="cls-3" d="m161.95,58.48c-6.13,0-12.11-1.93-17.07-5.53-1.66-1.19-2.04-3.5-.85-5.15,1.19-1.66,3.5-2.04,5.16-.85h0c7.64,5.49,17.93,5.49,25.57,0,1.64-1.22,3.96-.88,5.18.76,1.22,1.64.88,3.96-.76,5.18-.03.02-.06.04-.09.06-4.98,3.62-10.98,5.55-17.14,5.53Z"/>
</svg>