<?xml version="1.0" encoding="UTF-8"?>
<svg id="Layer_1" data-name="Layer 1" xmlns="http://www.w3.org/2000/svg" viewBox="0 0 337.47 97.1">
  <defs>
    <style>
      .cls-1 {
        fill: #8e6eaf;
      }

      .cls-2 {
        fill: #90be6e;
      }

      .cls-3 {
        fill: #f06769;
      }

      .cls-4 {
        fill: #231f20;
      }
    </style>
  </defs>
  <path class="cls-4" d="m48.6,79.2c-1,0-2,0-3-.15-7.91-.81-15.19-4.66-20.32-10.74-8.03-9.52-9.53-22.94-3.82-34,7.63-14.84,25.85-20.67,40.68-13.04.12.06.24.13.37.19,14.94,7.89,20.72,26.35,12.95,41.35-5.19,10.05-15.55,16.37-26.86,16.39Zm-.3-57.27c-2.66,0-5.3.4-7.84,1.2-14.02,4.56-21.69,19.63-17.13,33.65,2.15,6.6,6.78,12.11,12.92,15.35,6.21,3.32,13.5,3.99,20.21,1.86h0c6.69-2.08,12.27-6.77,15.48-13,6.76-13.14,1.59-29.28-11.56-36.04-3.73-1.92-7.85-2.93-12.04-2.96l-.04-.06Z"/>
  <ellipse class="cls-2" cx="48.46" cy="48.56" rx="19.71" ry="19.88" transform="translate(-12.29 16.69) rotate(-17.38)"/>
  <path class="cls-4" d="m82.83,28.16c-6.11-.01-11.49-4-13.28-9.84-2.32-7.44,1.82-15.35,9.26-17.67,3.53-1.1,7.36-.77,10.65.91,3.3,1.72,5.77,4.69,6.85,8.25,2.28,7.42-1.84,15.28-9.23,17.64-1.37.46-2.81.7-4.25.71Zm.21-24.14c-5.6.02-10.13,4.57-10.11,10.17,0,1,.15,1.99.45,2.95.77,2.53,2.53,4.65,4.88,5.88h0c2.35,1.23,5.09,1.47,7.61.65,5.29-1.7,8.23-7.33,6.59-12.64-1.28-4.15-5.11-6.99-9.45-7h.03Z"/>
  <path class="cls-4" d="m13.87,97.1c-2.23.02-4.43-.51-6.41-1.54h0c-6.87-3.67-9.46-12.22-5.79-19.1,1.73-3.24,4.66-5.68,8.17-6.79,7.31-2.34,15.14,1.69,17.48,9,.01.04.03.09.04.13,2.3,7.46-1.89,15.38-9.35,17.67-1.34.41-2.73.62-4.14.63Zm-4.57-5.13c4.97,2.53,11.05.56,13.58-4.41,1.2-2.35,1.43-5.07.65-7.59-1.59-5.22-7.12-8.17-12.34-6.58-.05.01-.1.03-.15.05-5.32,1.68-8.26,7.36-6.58,12.68.79,2.5,2.53,4.6,4.84,5.84h0Z"/>
  <path class="cls-4" d="m68.77,30.64c-.54,0-1.06-.22-1.43-.61-.78-.78-.78-2.05,0-2.83,0,0,0,0,0,0l5.89-5.75c.79-.77,2.06-.76,2.83.03s.76,2.06-.03,2.83l-5.89,5.76c-.37.36-.86.56-1.37.57Z"/>
  <path class="cls-4" d="m22.2,76.19c-.54,0-1.05-.22-1.43-.6-.78-.78-.79-2.04-.01-2.83,0,0,0,0,.01-.01l5.88-5.75c.79-.78,2.06-.76,2.84.03.78.79.76,2.06-.02,2.83l-5.88,5.76c-.37.36-.86.57-1.38.57Z"/>
  <path class="cls-3" d="m206.49,54.49c8.49-8.49,8.49-22.26,0-30.75s-22.26-8.49-30.75,0l-3.78,3.79,30.74,30.75,3.79-3.79Z"/>
  <path class="cls-3" d="m202.7,61.06l-33.52-33.53,5.21-5.17c9.5-9,24.5-8.6,33.5.91,8.66,9.15,8.66,23.47-.01,32.61l-5.18,5.18Zm-28-33.52l28,28,2.41-2.4c7.73-7.73,7.73-20.27,0-28s-20.27-7.73-28,0l-2.41,2.4Z"/>
  <path class="cls-4" d="m171.95,91.8l-35.92-35.92c-9.26-9.26-9.26-24.26,0-33.52,9.26-9.26,24.26-9.26,33.52,0l35.92,35.92-33.52,33.52Zm-19.16-72.46c-10.92,0-19.79,8.84-19.8,19.76,0,5.25,2.08,10.29,5.8,14.01l33.16,33.14,28-28-33.17-33.12c-3.7-3.72-8.74-5.81-13.99-5.79Z"/>
  <circle class="cls-3" cx="215.66" cy="14.57" r="8.25"/>
  <circle class="cls-3" cx="128.25" cy="14.57" r="8.25"/>
  <path class="cls-4" d="m254.54,75.94c-.72,0-1.4-.39-1.78-1-14.02-21.31-8.11-49.94,13.2-63.96,15.36-10.1,35.25-10.14,50.64-.08,1,.64,1.29,1.97.65,2.97-.64,1-1.97,1.29-2.97.65-19.32-12.73-45.31-7.38-58.04,11.94-9.23,14.01-9.21,32.17.04,46.16.66.98.4,2.3-.58,2.96-.36.24-.77.37-1.2.36h.04Z"/>
  <path class="cls-4" d="m291.28,95.69c-8.9.01-17.61-2.55-25.08-7.39-1-.63-1.29-1.96-.66-2.95s1.96-1.29,2.95-.66c.01,0,.02.01.03.02,19.43,12.56,45.37,7,57.94-12.44,9.13-14.11,8.93-32.31-.49-46.23-.7-.95-.5-2.29.46-2.99s2.29-.5,2.99.46c.03.04.06.09.09.14,14.3,21.11,8.78,49.81-12.33,64.11-7.65,5.18-16.68,7.95-25.91,7.94Z"/>
  <path class="cls-4" d="m291.28,13.78c-1.18,0-2.14-.96-2.14-2.14v-6.12c0-1.18.96-2.14,2.14-2.14,1.18,0,2.14.96,2.14,2.14v6.16c-.02,1.17-.97,2.1-2.14,2.1Z"/>
  <path class="cls-4" d="m291.28,95.69c-1.18,0-2.13-.94-2.14-2.12,0-.02,0-.03,0-.05v-6.12c0-1.18.96-2.14,2.14-2.14,1.18,0,2.14.96,2.14,2.14v6.12c.02,1.18-.91,2.15-2.09,2.17-.02,0-.03,0-.05,0Z"/>
  <path class="cls-4" d="m335.28,51.66h-6.12c-1.18,0-2.14-.96-2.14-2.14,0-1.18.96-2.14,2.14-2.14h6.12c1.18,0,2.14.96,2.14,2.14,0,1.18-.96,2.14-2.14,2.14Z"/>
  <path class="cls-4" d="m253.4,51.66h-6.12c-1.18,0-2.14-.96-2.14-2.14,0-1.18.96-2.14,2.14-2.14h6.16c1.18,0,2.14.96,2.14,2.14,0,1.18-.96,2.14-2.14,2.14h-.04Z"/>
  <path class="cls-1" d="m252.41,87.31l29.2-46.2c.32-.51.75-.94,1.26-1.27l46.21-29.18c.37-.22.85-.1,1.07.27.15.25.15.56,0,.8l-29.2,46.2c-.32.51-.75.94-1.26,1.27l-46.21,29.18c-.37.22-.85.1-1.07-.27-.15-.25-.15-.56,0-.8Z"/>
</svg>